<mxfile host="app.diagrams.net" agent="Mozilla/5.0 (Windows NT 10.0; Win64; x64) AppleWebKit/537.36 (KHTML, like Gecko) Chrome/125.0.0.0 Safari/537.36 Edg/125.0.0.0" version="26.1.0">
  <diagram name="第 1 页" id="7T8MdKLIcJe5ybVdvawx">
    <mxGraphModel dx="1426" dy="1197" grid="0" gridSize="10" guides="1" tooltips="1" connect="1" arrows="1" fold="1" page="0" pageScale="1" pageWidth="827" pageHeight="1169" math="1" shadow="0">
      <root>
        <mxCell id="0" />
        <mxCell id="1" parent="0" />
        <mxCell id="S6ZuTX8GFXmOVU9LahuD-244" value="" style="group" vertex="1" connectable="0" parent="1">
          <mxGeometry x="246" y="71" width="78.69" height="94.96000000000001" as="geometry" />
        </mxCell>
        <mxCell id="S6ZuTX8GFXmOVU9LahuD-613" value="" style="endArrow=classicThin;html=1;rounded=0;strokeColor=default;align=center;verticalAlign=middle;fontFamily=Helvetica;fontSize=11;fontColor=default;labelBackgroundColor=default;exitX=1;exitY=0;exitDx=0;exitDy=0;strokeWidth=2;endFill=1;" edge="1" parent="S6ZuTX8GFXmOVU9LahuD-244" target="S6ZuTX8GFXmOVU9LahuD-602">
          <mxGeometry width="50" height="50" relative="1" as="geometry">
            <mxPoint x="-166" y="-41" as="sourcePoint" />
            <mxPoint x="1202" y="485" as="targetPoint" />
          </mxGeometry>
        </mxCell>
        <mxCell id="S6ZuTX8GFXmOVU9LahuD-245" value="" style="shape=parallelogram;perimeter=parallelogramPerimeter;whiteSpace=wrap;html=1;fixedSize=1;direction=south;rotation=75;fillColor=#6A1B9A;strokeColor=#D8B4F8;movable=1;resizable=1;rotatable=1;deletable=1;editable=1;locked=0;connectable=1;" vertex="1" parent="S6ZuTX8GFXmOVU9LahuD-244">
          <mxGeometry x="-3.25" y="-20.22" width="74.72" height="107.48" as="geometry" />
        </mxCell>
        <mxCell id="S6ZuTX8GFXmOVU9LahuD-246" value="" style="group" vertex="1" connectable="0" parent="S6ZuTX8GFXmOVU9LahuD-244">
          <mxGeometry x="9.719999999999999" width="68.97" height="94.96000000000001" as="geometry" />
        </mxCell>
        <mxCell id="S6ZuTX8GFXmOVU9LahuD-247" style="edgeStyle=none;shape=connector;rounded=0;orthogonalLoop=1;jettySize=auto;html=1;exitX=1;exitY=1;exitDx=0;exitDy=0;entryX=0;entryY=0;entryDx=0;entryDy=0;strokeColor=default;align=center;verticalAlign=middle;fontFamily=Helvetica;fontSize=11;fontColor=default;labelBackgroundColor=default;startFill=0;endArrow=none;" edge="1" parent="S6ZuTX8GFXmOVU9LahuD-246" source="S6ZuTX8GFXmOVU9LahuD-248" target="S6ZuTX8GFXmOVU9LahuD-254">
          <mxGeometry relative="1" as="geometry" />
        </mxCell>
        <mxCell id="S6ZuTX8GFXmOVU9LahuD-248" value="" style="ellipse;whiteSpace=wrap;html=1;aspect=fixed;movable=1;resizable=1;rotatable=1;deletable=1;editable=1;locked=0;connectable=1;fillColor=#dae8fc;strokeColor=#6c8ebf;" vertex="1" parent="S6ZuTX8GFXmOVU9LahuD-246">
          <mxGeometry x="39.72" width="9.722222222222223" height="9.722222222222223" as="geometry" />
        </mxCell>
        <mxCell id="S6ZuTX8GFXmOVU9LahuD-249" style="edgeStyle=none;shape=connector;rounded=0;orthogonalLoop=1;jettySize=auto;html=1;exitX=0;exitY=1;exitDx=0;exitDy=0;entryX=1;entryY=0;entryDx=0;entryDy=0;strokeColor=default;align=center;verticalAlign=middle;fontFamily=Helvetica;fontSize=11;fontColor=default;labelBackgroundColor=default;startFill=0;endArrow=none;" edge="1" parent="S6ZuTX8GFXmOVU9LahuD-246" source="S6ZuTX8GFXmOVU9LahuD-250" target="S6ZuTX8GFXmOVU9LahuD-259">
          <mxGeometry relative="1" as="geometry" />
        </mxCell>
        <mxCell id="S6ZuTX8GFXmOVU9LahuD-250" value="" style="ellipse;whiteSpace=wrap;html=1;aspect=fixed;movable=1;resizable=1;rotatable=1;deletable=1;editable=1;locked=0;connectable=1;fillColor=#dae8fc;strokeColor=#6c8ebf;" vertex="1" parent="S6ZuTX8GFXmOVU9LahuD-246">
          <mxGeometry x="20.280000000000005" y="24" width="9.722222222222223" height="9.722222222222223" as="geometry" />
        </mxCell>
        <mxCell id="S6ZuTX8GFXmOVU9LahuD-251" style="edgeStyle=none;shape=connector;rounded=0;orthogonalLoop=1;jettySize=auto;html=1;exitX=1;exitY=0;exitDx=0;exitDy=0;entryX=0.5;entryY=1;entryDx=0;entryDy=0;strokeColor=default;align=center;verticalAlign=middle;fontFamily=Helvetica;fontSize=11;fontColor=default;labelBackgroundColor=default;startFill=0;endArrow=none;" edge="1" parent="S6ZuTX8GFXmOVU9LahuD-246" source="S6ZuTX8GFXmOVU9LahuD-252" target="S6ZuTX8GFXmOVU9LahuD-257">
          <mxGeometry relative="1" as="geometry" />
        </mxCell>
        <mxCell id="S6ZuTX8GFXmOVU9LahuD-252" value="" style="ellipse;whiteSpace=wrap;html=1;aspect=fixed;movable=1;resizable=1;rotatable=1;deletable=1;editable=1;locked=0;connectable=1;fillColor=#dae8fc;strokeColor=#6c8ebf;" vertex="1" parent="S6ZuTX8GFXmOVU9LahuD-246">
          <mxGeometry x="30" y="57.72" width="9.722222222222223" height="9.722222222222223" as="geometry" />
        </mxCell>
        <mxCell id="S6ZuTX8GFXmOVU9LahuD-253" style="edgeStyle=none;shape=connector;rounded=0;orthogonalLoop=1;jettySize=auto;html=1;exitX=0;exitY=1;exitDx=0;exitDy=0;entryX=1;entryY=0;entryDx=0;entryDy=0;strokeColor=default;align=center;verticalAlign=middle;fontFamily=Helvetica;fontSize=11;fontColor=default;labelBackgroundColor=default;startFill=0;endArrow=none;" edge="1" parent="S6ZuTX8GFXmOVU9LahuD-246" source="S6ZuTX8GFXmOVU9LahuD-254" target="S6ZuTX8GFXmOVU9LahuD-250">
          <mxGeometry relative="1" as="geometry" />
        </mxCell>
        <mxCell id="S6ZuTX8GFXmOVU9LahuD-254" value="" style="ellipse;whiteSpace=wrap;html=1;aspect=fixed;movable=1;resizable=1;rotatable=1;deletable=1;editable=1;locked=0;connectable=1;fillColor=#dae8fc;strokeColor=#6c8ebf;" vertex="1" parent="S6ZuTX8GFXmOVU9LahuD-246">
          <mxGeometry x="54.72" y="14.28" width="9.722222222222223" height="9.722222222222223" as="geometry" />
        </mxCell>
        <mxCell id="S6ZuTX8GFXmOVU9LahuD-255" style="edgeStyle=orthogonalEdgeStyle;rounded=0;orthogonalLoop=1;jettySize=auto;html=1;exitX=1;exitY=0.5;exitDx=0;exitDy=0;entryX=0;entryY=0.5;entryDx=0;entryDy=0;startArrow=none;startFill=0;jumpStyle=none;curved=1;endArrow=none;" edge="1" parent="S6ZuTX8GFXmOVU9LahuD-246" source="S6ZuTX8GFXmOVU9LahuD-256" target="S6ZuTX8GFXmOVU9LahuD-248">
          <mxGeometry relative="1" as="geometry" />
        </mxCell>
        <mxCell id="S6ZuTX8GFXmOVU9LahuD-256" value="" style="ellipse;whiteSpace=wrap;html=1;aspect=fixed;movable=1;resizable=1;rotatable=1;deletable=1;editable=1;locked=0;connectable=1;fillColor=#dae8fc;strokeColor=#6c8ebf;" vertex="1" parent="S6ZuTX8GFXmOVU9LahuD-246">
          <mxGeometry x="10" width="9.72" height="9.72" as="geometry" />
        </mxCell>
        <mxCell id="S6ZuTX8GFXmOVU9LahuD-257" value="" style="ellipse;whiteSpace=wrap;html=1;aspect=fixed;movable=1;resizable=1;rotatable=1;deletable=1;editable=1;locked=0;connectable=1;fillColor=#dae8fc;strokeColor=#6c8ebf;" vertex="1" parent="S6ZuTX8GFXmOVU9LahuD-246">
          <mxGeometry x="39.72" y="32.28" width="9.722222222222223" height="9.722222222222223" as="geometry" />
        </mxCell>
        <mxCell id="S6ZuTX8GFXmOVU9LahuD-258" style="edgeStyle=none;shape=connector;rounded=0;orthogonalLoop=1;jettySize=auto;html=1;exitX=1;exitY=0.5;exitDx=0;exitDy=0;entryX=0;entryY=1;entryDx=0;entryDy=0;strokeColor=default;align=center;verticalAlign=middle;fontFamily=Helvetica;fontSize=11;fontColor=default;labelBackgroundColor=default;startFill=0;endArrow=none;" edge="1" parent="S6ZuTX8GFXmOVU9LahuD-246" source="S6ZuTX8GFXmOVU9LahuD-259" target="S6ZuTX8GFXmOVU9LahuD-257">
          <mxGeometry relative="1" as="geometry" />
        </mxCell>
        <mxCell id="S6ZuTX8GFXmOVU9LahuD-259" value="" style="ellipse;whiteSpace=wrap;html=1;aspect=fixed;movable=1;resizable=1;rotatable=1;deletable=1;editable=1;locked=0;connectable=1;fillColor=#dae8fc;strokeColor=#6c8ebf;" vertex="1" parent="S6ZuTX8GFXmOVU9LahuD-246">
          <mxGeometry x="10.000000000000002" y="57.72" width="9.722222222222223" height="9.722222222222223" as="geometry" />
        </mxCell>
        <mxCell id="S6ZuTX8GFXmOVU9LahuD-260" style="rounded=0;orthogonalLoop=1;jettySize=auto;html=1;exitX=1;exitY=1;exitDx=0;exitDy=0;entryX=0;entryY=0.5;entryDx=0;entryDy=0;endArrow=none;startFill=0;" edge="1" parent="S6ZuTX8GFXmOVU9LahuD-246" source="S6ZuTX8GFXmOVU9LahuD-261" target="S6ZuTX8GFXmOVU9LahuD-259">
          <mxGeometry relative="1" as="geometry" />
        </mxCell>
        <mxCell id="S6ZuTX8GFXmOVU9LahuD-261" value="" style="ellipse;whiteSpace=wrap;html=1;aspect=fixed;movable=1;resizable=1;rotatable=1;deletable=1;editable=1;locked=0;connectable=1;fillColor=#dae8fc;strokeColor=#6c8ebf;" vertex="1" parent="S6ZuTX8GFXmOVU9LahuD-246">
          <mxGeometry x="-9.719999999999999" y="48" width="9.722222222222223" height="9.722222222222223" as="geometry" />
        </mxCell>
        <mxCell id="S6ZuTX8GFXmOVU9LahuD-262" style="rounded=0;orthogonalLoop=1;jettySize=auto;html=1;exitX=1;exitY=0;exitDx=0;exitDy=0;entryX=0;entryY=1;entryDx=0;entryDy=0;endArrow=none;startFill=0;" edge="1" parent="S6ZuTX8GFXmOVU9LahuD-244" source="S6ZuTX8GFXmOVU9LahuD-265" target="S6ZuTX8GFXmOVU9LahuD-256">
          <mxGeometry relative="1" as="geometry" />
        </mxCell>
        <mxCell id="S6ZuTX8GFXmOVU9LahuD-263" style="edgeStyle=orthogonalEdgeStyle;rounded=0;orthogonalLoop=1;jettySize=auto;html=1;exitX=0.5;exitY=1;exitDx=0;exitDy=0;entryX=0.5;entryY=0;entryDx=0;entryDy=0;endArrow=none;startFill=0;" edge="1" parent="S6ZuTX8GFXmOVU9LahuD-244" source="S6ZuTX8GFXmOVU9LahuD-265" target="S6ZuTX8GFXmOVU9LahuD-261">
          <mxGeometry relative="1" as="geometry" />
        </mxCell>
        <mxCell id="S6ZuTX8GFXmOVU9LahuD-264" style="edgeStyle=none;shape=connector;rounded=0;orthogonalLoop=1;jettySize=auto;html=1;exitX=1;exitY=0.5;exitDx=0;exitDy=0;entryX=0;entryY=0.5;entryDx=0;entryDy=0;strokeColor=default;align=center;verticalAlign=middle;fontFamily=Helvetica;fontSize=11;fontColor=default;labelBackgroundColor=default;startFill=0;endArrow=none;" edge="1" parent="S6ZuTX8GFXmOVU9LahuD-244" source="S6ZuTX8GFXmOVU9LahuD-265" target="S6ZuTX8GFXmOVU9LahuD-250">
          <mxGeometry relative="1" as="geometry" />
        </mxCell>
        <mxCell id="S6ZuTX8GFXmOVU9LahuD-265" value="" style="ellipse;whiteSpace=wrap;html=1;aspect=fixed;movable=1;resizable=1;rotatable=1;deletable=1;editable=1;locked=0;connectable=1;fillColor=#666666;strokeColor=#6c8ebf;" vertex="1" parent="S6ZuTX8GFXmOVU9LahuD-244">
          <mxGeometry y="24.419999999999987" width="9.722222222222223" height="9.722222222222223" as="geometry" />
        </mxCell>
        <mxCell id="S6ZuTX8GFXmOVU9LahuD-266" style="edgeStyle=none;shape=connector;rounded=0;orthogonalLoop=1;jettySize=auto;html=1;exitX=0.5;exitY=0;exitDx=0;exitDy=0;entryX=0.5;entryY=1;entryDx=0;entryDy=0;strokeColor=default;align=center;verticalAlign=middle;fontFamily=Helvetica;fontSize=11;fontColor=default;labelBackgroundColor=default;startFill=0;endArrow=none;" edge="1" parent="S6ZuTX8GFXmOVU9LahuD-244" source="S6ZuTX8GFXmOVU9LahuD-267" target="S6ZuTX8GFXmOVU9LahuD-254">
          <mxGeometry relative="1" as="geometry" />
        </mxCell>
        <mxCell id="S6ZuTX8GFXmOVU9LahuD-267" value="" style="ellipse;whiteSpace=wrap;html=1;aspect=fixed;movable=1;resizable=1;rotatable=1;deletable=1;editable=1;locked=0;connectable=1;fillColor=#dae8fc;strokeColor=#6c8ebf;" vertex="1" parent="S6ZuTX8GFXmOVU9LahuD-244">
          <mxGeometry x="65" y="40.140000000000015" width="9.722222222222223" height="9.722222222222223" as="geometry" />
        </mxCell>
        <mxCell id="S6ZuTX8GFXmOVU9LahuD-268" style="edgeStyle=none;shape=connector;rounded=0;orthogonalLoop=1;jettySize=auto;html=1;exitX=1;exitY=0.5;exitDx=0;exitDy=0;entryX=0;entryY=1;entryDx=0;entryDy=0;strokeColor=default;align=center;verticalAlign=middle;fontFamily=Helvetica;fontSize=11;fontColor=default;labelBackgroundColor=default;startFill=0;endArrow=none;" edge="1" parent="S6ZuTX8GFXmOVU9LahuD-244" source="S6ZuTX8GFXmOVU9LahuD-252" target="S6ZuTX8GFXmOVU9LahuD-267">
          <mxGeometry relative="1" as="geometry" />
        </mxCell>
        <mxCell id="S6ZuTX8GFXmOVU9LahuD-269" style="edgeStyle=none;shape=connector;rounded=0;orthogonalLoop=1;jettySize=auto;html=1;exitX=1;exitY=0.5;exitDx=0;exitDy=0;entryX=0;entryY=0;entryDx=0;entryDy=0;strokeColor=default;align=center;verticalAlign=middle;fontFamily=Helvetica;fontSize=11;fontColor=default;labelBackgroundColor=default;startFill=0;endArrow=none;" edge="1" parent="S6ZuTX8GFXmOVU9LahuD-244" source="S6ZuTX8GFXmOVU9LahuD-257" target="S6ZuTX8GFXmOVU9LahuD-267">
          <mxGeometry relative="1" as="geometry" />
        </mxCell>
        <mxCell id="S6ZuTX8GFXmOVU9LahuD-331" value="" style="group" vertex="1" connectable="0" parent="1">
          <mxGeometry x="276" y="82.00000000000001" width="78.69" height="107.00333333333326" as="geometry" />
        </mxCell>
        <mxCell id="S6ZuTX8GFXmOVU9LahuD-332" value="" style="shape=parallelogram;perimeter=parallelogramPerimeter;whiteSpace=wrap;html=1;fixedSize=1;direction=south;rotation=75;fillColor=#9575CD;strokeColor=#A865FD;" vertex="1" parent="S6ZuTX8GFXmOVU9LahuD-331">
          <mxGeometry x="-3.25" y="-20.22" width="74.72" height="107.48" as="geometry" />
        </mxCell>
        <mxCell id="S6ZuTX8GFXmOVU9LahuD-333" value="" style="group;movable=0;resizable=0;rotatable=0;deletable=0;editable=0;locked=1;connectable=0;" vertex="1" connectable="0" parent="S6ZuTX8GFXmOVU9LahuD-331">
          <mxGeometry x="9.719999999999999" width="68.97" height="94.96000000000001" as="geometry" />
        </mxCell>
        <mxCell id="S6ZuTX8GFXmOVU9LahuD-334" style="edgeStyle=none;shape=connector;rounded=0;orthogonalLoop=1;jettySize=auto;html=1;exitX=1;exitY=1;exitDx=0;exitDy=0;entryX=0;entryY=0;entryDx=0;entryDy=0;strokeColor=default;align=center;verticalAlign=middle;fontFamily=Helvetica;fontSize=11;fontColor=default;labelBackgroundColor=default;startFill=0;endArrow=none;" edge="1" parent="S6ZuTX8GFXmOVU9LahuD-333" source="S6ZuTX8GFXmOVU9LahuD-335" target="S6ZuTX8GFXmOVU9LahuD-341">
          <mxGeometry relative="1" as="geometry" />
        </mxCell>
        <mxCell id="S6ZuTX8GFXmOVU9LahuD-335" value="" style="ellipse;whiteSpace=wrap;html=1;aspect=fixed;movable=1;resizable=1;rotatable=1;deletable=1;editable=1;locked=0;connectable=1;fillColor=#dae8fc;strokeColor=#6c8ebf;" vertex="1" parent="S6ZuTX8GFXmOVU9LahuD-333">
          <mxGeometry x="39.72" width="9.722222222222223" height="9.722222222222223" as="geometry" />
        </mxCell>
        <mxCell id="S6ZuTX8GFXmOVU9LahuD-336" style="edgeStyle=none;shape=connector;rounded=0;orthogonalLoop=1;jettySize=auto;html=1;exitX=0;exitY=1;exitDx=0;exitDy=0;entryX=1;entryY=0;entryDx=0;entryDy=0;strokeColor=default;align=center;verticalAlign=middle;fontFamily=Helvetica;fontSize=11;fontColor=default;labelBackgroundColor=default;startFill=0;endArrow=none;" edge="1" parent="S6ZuTX8GFXmOVU9LahuD-333" source="S6ZuTX8GFXmOVU9LahuD-337" target="S6ZuTX8GFXmOVU9LahuD-346">
          <mxGeometry relative="1" as="geometry" />
        </mxCell>
        <mxCell id="S6ZuTX8GFXmOVU9LahuD-337" value="" style="ellipse;whiteSpace=wrap;html=1;aspect=fixed;movable=1;resizable=1;rotatable=1;deletable=1;editable=1;locked=0;connectable=1;fillColor=#dae8fc;strokeColor=#6c8ebf;" vertex="1" parent="S6ZuTX8GFXmOVU9LahuD-333">
          <mxGeometry x="20.280000000000005" y="24" width="9.722222222222223" height="9.722222222222223" as="geometry" />
        </mxCell>
        <mxCell id="S6ZuTX8GFXmOVU9LahuD-338" style="edgeStyle=none;shape=connector;rounded=0;orthogonalLoop=1;jettySize=auto;html=1;exitX=1;exitY=0;exitDx=0;exitDy=0;entryX=0.5;entryY=1;entryDx=0;entryDy=0;strokeColor=default;align=center;verticalAlign=middle;fontFamily=Helvetica;fontSize=11;fontColor=default;labelBackgroundColor=default;startFill=0;endArrow=none;" edge="1" parent="S6ZuTX8GFXmOVU9LahuD-333" source="S6ZuTX8GFXmOVU9LahuD-339" target="S6ZuTX8GFXmOVU9LahuD-344">
          <mxGeometry relative="1" as="geometry" />
        </mxCell>
        <mxCell id="S6ZuTX8GFXmOVU9LahuD-339" value="" style="ellipse;whiteSpace=wrap;html=1;aspect=fixed;movable=1;resizable=1;rotatable=1;deletable=1;editable=1;locked=0;connectable=1;fillColor=#dae8fc;strokeColor=#6c8ebf;" vertex="1" parent="S6ZuTX8GFXmOVU9LahuD-333">
          <mxGeometry x="30" y="57.72" width="9.722222222222223" height="9.722222222222223" as="geometry" />
        </mxCell>
        <mxCell id="S6ZuTX8GFXmOVU9LahuD-340" style="edgeStyle=none;shape=connector;rounded=0;orthogonalLoop=1;jettySize=auto;html=1;exitX=0;exitY=1;exitDx=0;exitDy=0;entryX=1;entryY=0;entryDx=0;entryDy=0;strokeColor=default;align=center;verticalAlign=middle;fontFamily=Helvetica;fontSize=11;fontColor=default;labelBackgroundColor=default;startFill=0;endArrow=none;" edge="1" parent="S6ZuTX8GFXmOVU9LahuD-333" source="S6ZuTX8GFXmOVU9LahuD-341" target="S6ZuTX8GFXmOVU9LahuD-337">
          <mxGeometry relative="1" as="geometry" />
        </mxCell>
        <mxCell id="S6ZuTX8GFXmOVU9LahuD-341" value="" style="ellipse;whiteSpace=wrap;html=1;aspect=fixed;movable=1;resizable=1;rotatable=1;deletable=1;editable=1;locked=0;connectable=1;fillColor=#dae8fc;strokeColor=#6c8ebf;" vertex="1" parent="S6ZuTX8GFXmOVU9LahuD-333">
          <mxGeometry x="54.72" y="14.28" width="9.722222222222223" height="9.722222222222223" as="geometry" />
        </mxCell>
        <mxCell id="S6ZuTX8GFXmOVU9LahuD-342" style="edgeStyle=orthogonalEdgeStyle;rounded=0;orthogonalLoop=1;jettySize=auto;html=1;exitX=1;exitY=0.5;exitDx=0;exitDy=0;entryX=0;entryY=0.5;entryDx=0;entryDy=0;startArrow=none;startFill=0;jumpStyle=none;curved=1;endArrow=none;" edge="1" parent="S6ZuTX8GFXmOVU9LahuD-333" source="S6ZuTX8GFXmOVU9LahuD-343" target="S6ZuTX8GFXmOVU9LahuD-335">
          <mxGeometry relative="1" as="geometry" />
        </mxCell>
        <mxCell id="S6ZuTX8GFXmOVU9LahuD-343" value="" style="ellipse;whiteSpace=wrap;html=1;aspect=fixed;movable=1;resizable=1;rotatable=1;deletable=1;editable=1;locked=0;connectable=1;fillColor=#707070;strokeColor=#6c8ebf;" vertex="1" parent="S6ZuTX8GFXmOVU9LahuD-333">
          <mxGeometry x="10" width="9.72" height="9.72" as="geometry" />
        </mxCell>
        <mxCell id="S6ZuTX8GFXmOVU9LahuD-344" value="" style="ellipse;whiteSpace=wrap;html=1;aspect=fixed;movable=1;resizable=1;rotatable=1;deletable=1;editable=1;locked=0;connectable=1;fillColor=#dae8fc;strokeColor=#6c8ebf;" vertex="1" parent="S6ZuTX8GFXmOVU9LahuD-333">
          <mxGeometry x="39.72" y="32.28" width="9.722222222222223" height="9.722222222222223" as="geometry" />
        </mxCell>
        <mxCell id="S6ZuTX8GFXmOVU9LahuD-345" style="edgeStyle=none;shape=connector;rounded=0;orthogonalLoop=1;jettySize=auto;html=1;exitX=1;exitY=0.5;exitDx=0;exitDy=0;entryX=0;entryY=1;entryDx=0;entryDy=0;strokeColor=default;align=center;verticalAlign=middle;fontFamily=Helvetica;fontSize=11;fontColor=default;labelBackgroundColor=default;startFill=0;endArrow=none;" edge="1" parent="S6ZuTX8GFXmOVU9LahuD-333" source="S6ZuTX8GFXmOVU9LahuD-346" target="S6ZuTX8GFXmOVU9LahuD-344">
          <mxGeometry relative="1" as="geometry" />
        </mxCell>
        <mxCell id="S6ZuTX8GFXmOVU9LahuD-346" value="" style="ellipse;whiteSpace=wrap;html=1;aspect=fixed;movable=1;resizable=1;rotatable=1;deletable=1;editable=1;locked=0;connectable=1;fillColor=#dae8fc;strokeColor=#6c8ebf;" vertex="1" parent="S6ZuTX8GFXmOVU9LahuD-333">
          <mxGeometry x="10.000000000000002" y="57.72" width="9.722222222222223" height="9.722222222222223" as="geometry" />
        </mxCell>
        <mxCell id="S6ZuTX8GFXmOVU9LahuD-347" style="rounded=0;orthogonalLoop=1;jettySize=auto;html=1;exitX=1;exitY=1;exitDx=0;exitDy=0;entryX=0;entryY=0.5;entryDx=0;entryDy=0;endArrow=none;startFill=0;" edge="1" parent="S6ZuTX8GFXmOVU9LahuD-333" source="S6ZuTX8GFXmOVU9LahuD-348" target="S6ZuTX8GFXmOVU9LahuD-346">
          <mxGeometry relative="1" as="geometry" />
        </mxCell>
        <mxCell id="S6ZuTX8GFXmOVU9LahuD-348" value="" style="ellipse;whiteSpace=wrap;html=1;aspect=fixed;movable=1;resizable=1;rotatable=1;deletable=1;editable=1;locked=0;connectable=1;fillColor=#dae8fc;strokeColor=#6c8ebf;" vertex="1" parent="S6ZuTX8GFXmOVU9LahuD-333">
          <mxGeometry x="-9.719999999999999" y="48" width="9.722222222222223" height="9.722222222222223" as="geometry" />
        </mxCell>
        <mxCell id="S6ZuTX8GFXmOVU9LahuD-349" style="rounded=0;orthogonalLoop=1;jettySize=auto;html=1;exitX=1;exitY=0;exitDx=0;exitDy=0;entryX=0;entryY=1;entryDx=0;entryDy=0;endArrow=none;startFill=0;" edge="1" parent="S6ZuTX8GFXmOVU9LahuD-331" source="S6ZuTX8GFXmOVU9LahuD-352" target="S6ZuTX8GFXmOVU9LahuD-343">
          <mxGeometry relative="1" as="geometry" />
        </mxCell>
        <mxCell id="S6ZuTX8GFXmOVU9LahuD-350" style="edgeStyle=orthogonalEdgeStyle;rounded=0;orthogonalLoop=1;jettySize=auto;html=1;exitX=0.5;exitY=1;exitDx=0;exitDy=0;entryX=0.5;entryY=0;entryDx=0;entryDy=0;endArrow=none;startFill=0;" edge="1" parent="S6ZuTX8GFXmOVU9LahuD-331" source="S6ZuTX8GFXmOVU9LahuD-352" target="S6ZuTX8GFXmOVU9LahuD-348">
          <mxGeometry relative="1" as="geometry" />
        </mxCell>
        <mxCell id="S6ZuTX8GFXmOVU9LahuD-351" style="edgeStyle=none;shape=connector;rounded=0;orthogonalLoop=1;jettySize=auto;html=1;exitX=1;exitY=0.5;exitDx=0;exitDy=0;entryX=0;entryY=0.5;entryDx=0;entryDy=0;strokeColor=default;align=center;verticalAlign=middle;fontFamily=Helvetica;fontSize=11;fontColor=default;labelBackgroundColor=default;startFill=0;endArrow=none;" edge="1" parent="S6ZuTX8GFXmOVU9LahuD-331" source="S6ZuTX8GFXmOVU9LahuD-352" target="S6ZuTX8GFXmOVU9LahuD-337">
          <mxGeometry relative="1" as="geometry" />
        </mxCell>
        <mxCell id="S6ZuTX8GFXmOVU9LahuD-352" value="" style="ellipse;whiteSpace=wrap;html=1;aspect=fixed;movable=1;resizable=1;rotatable=1;deletable=1;editable=1;locked=0;connectable=1;fillColor=#dae8fc;strokeColor=#6c8ebf;" vertex="1" parent="S6ZuTX8GFXmOVU9LahuD-331">
          <mxGeometry y="24.419999999999987" width="9.722222222222223" height="9.722222222222223" as="geometry" />
        </mxCell>
        <mxCell id="S6ZuTX8GFXmOVU9LahuD-353" style="edgeStyle=none;shape=connector;rounded=0;orthogonalLoop=1;jettySize=auto;html=1;exitX=0.5;exitY=0;exitDx=0;exitDy=0;entryX=0.5;entryY=1;entryDx=0;entryDy=0;strokeColor=default;align=center;verticalAlign=middle;fontFamily=Helvetica;fontSize=11;fontColor=default;labelBackgroundColor=default;startFill=0;endArrow=none;" edge="1" parent="S6ZuTX8GFXmOVU9LahuD-331" source="S6ZuTX8GFXmOVU9LahuD-354" target="S6ZuTX8GFXmOVU9LahuD-341">
          <mxGeometry relative="1" as="geometry" />
        </mxCell>
        <mxCell id="S6ZuTX8GFXmOVU9LahuD-354" value="" style="ellipse;whiteSpace=wrap;html=1;aspect=fixed;movable=1;resizable=1;rotatable=1;deletable=1;editable=1;locked=0;connectable=1;fillColor=#dae8fc;strokeColor=#6c8ebf;" vertex="1" parent="S6ZuTX8GFXmOVU9LahuD-331">
          <mxGeometry x="65" y="40.140000000000015" width="9.722222222222223" height="9.722222222222223" as="geometry" />
        </mxCell>
        <mxCell id="S6ZuTX8GFXmOVU9LahuD-355" style="edgeStyle=none;shape=connector;rounded=0;orthogonalLoop=1;jettySize=auto;html=1;exitX=1;exitY=0.5;exitDx=0;exitDy=0;entryX=0;entryY=1;entryDx=0;entryDy=0;strokeColor=default;align=center;verticalAlign=middle;fontFamily=Helvetica;fontSize=11;fontColor=default;labelBackgroundColor=default;startFill=0;endArrow=none;" edge="1" parent="S6ZuTX8GFXmOVU9LahuD-331" source="S6ZuTX8GFXmOVU9LahuD-339" target="S6ZuTX8GFXmOVU9LahuD-354">
          <mxGeometry relative="1" as="geometry" />
        </mxCell>
        <mxCell id="S6ZuTX8GFXmOVU9LahuD-356" style="edgeStyle=none;shape=connector;rounded=0;orthogonalLoop=1;jettySize=auto;html=1;exitX=1;exitY=0.5;exitDx=0;exitDy=0;entryX=0;entryY=0;entryDx=0;entryDy=0;strokeColor=default;align=center;verticalAlign=middle;fontFamily=Helvetica;fontSize=11;fontColor=default;labelBackgroundColor=default;startFill=0;endArrow=none;" edge="1" parent="S6ZuTX8GFXmOVU9LahuD-331" source="S6ZuTX8GFXmOVU9LahuD-344" target="S6ZuTX8GFXmOVU9LahuD-354">
          <mxGeometry relative="1" as="geometry" />
        </mxCell>
        <mxCell id="S6ZuTX8GFXmOVU9LahuD-639" value="&lt;div style=&quot;text-align: center;&quot;&gt;&lt;font face=&quot;Times New Roman&quot;&gt;&lt;span style=&quot;font-size: 14px; text-wrap: nowrap;&quot;&gt;&lt;b&gt;...&lt;/b&gt;&lt;/span&gt;&lt;/font&gt;&lt;/div&gt;" style="text;whiteSpace=wrap;html=1;fontFamily=Helvetica;fontSize=11;fontColor=default;labelBackgroundColor=default;rotation=20;" vertex="1" parent="S6ZuTX8GFXmOVU9LahuD-331">
          <mxGeometry x="-28.99555555555571" y="72.00333333333326" width="64" height="35" as="geometry" />
        </mxCell>
        <mxCell id="S6ZuTX8GFXmOVU9LahuD-435" value="" style="group" vertex="1" connectable="0" parent="1">
          <mxGeometry x="402" y="131" width="78.69" height="94.96000000000001" as="geometry" />
        </mxCell>
        <mxCell id="S6ZuTX8GFXmOVU9LahuD-436" value="" style="shape=parallelogram;perimeter=parallelogramPerimeter;whiteSpace=wrap;html=1;fixedSize=1;direction=south;rotation=75;fillColor=#EF6C00;strokeColor=#36393d;movable=1;resizable=1;rotatable=1;deletable=1;editable=1;locked=0;connectable=1;" vertex="1" parent="S6ZuTX8GFXmOVU9LahuD-435">
          <mxGeometry x="-3.25" y="-20.22" width="74.72" height="107.48" as="geometry" />
        </mxCell>
        <mxCell id="S6ZuTX8GFXmOVU9LahuD-437" value="" style="group" vertex="1" connectable="0" parent="S6ZuTX8GFXmOVU9LahuD-435">
          <mxGeometry x="9.719999999999999" width="68.97" height="94.96000000000001" as="geometry" />
        </mxCell>
        <mxCell id="S6ZuTX8GFXmOVU9LahuD-438" style="edgeStyle=none;shape=connector;rounded=0;orthogonalLoop=1;jettySize=auto;html=1;exitX=1;exitY=1;exitDx=0;exitDy=0;entryX=0;entryY=0;entryDx=0;entryDy=0;strokeColor=default;align=center;verticalAlign=middle;fontFamily=Helvetica;fontSize=11;fontColor=default;labelBackgroundColor=default;startFill=0;endArrow=none;" edge="1" parent="S6ZuTX8GFXmOVU9LahuD-437" source="S6ZuTX8GFXmOVU9LahuD-439" target="S6ZuTX8GFXmOVU9LahuD-445">
          <mxGeometry relative="1" as="geometry" />
        </mxCell>
        <mxCell id="S6ZuTX8GFXmOVU9LahuD-439" value="" style="ellipse;whiteSpace=wrap;html=1;aspect=fixed;movable=1;resizable=1;rotatable=1;deletable=1;editable=1;locked=0;connectable=1;fillColor=#dae8fc;strokeColor=#6c8ebf;" vertex="1" parent="S6ZuTX8GFXmOVU9LahuD-437">
          <mxGeometry x="39.72" width="9.722222222222223" height="9.722222222222223" as="geometry" />
        </mxCell>
        <mxCell id="S6ZuTX8GFXmOVU9LahuD-440" style="edgeStyle=none;shape=connector;rounded=0;orthogonalLoop=1;jettySize=auto;html=1;exitX=0;exitY=1;exitDx=0;exitDy=0;entryX=1;entryY=0;entryDx=0;entryDy=0;strokeColor=default;align=center;verticalAlign=middle;fontFamily=Helvetica;fontSize=11;fontColor=default;labelBackgroundColor=default;startFill=0;endArrow=none;" edge="1" parent="S6ZuTX8GFXmOVU9LahuD-437" source="S6ZuTX8GFXmOVU9LahuD-441" target="S6ZuTX8GFXmOVU9LahuD-450">
          <mxGeometry relative="1" as="geometry" />
        </mxCell>
        <mxCell id="S6ZuTX8GFXmOVU9LahuD-441" value="" style="ellipse;whiteSpace=wrap;html=1;aspect=fixed;movable=1;resizable=1;rotatable=1;deletable=1;editable=1;locked=0;connectable=1;fillColor=#dae8fc;strokeColor=#6c8ebf;" vertex="1" parent="S6ZuTX8GFXmOVU9LahuD-437">
          <mxGeometry x="20.280000000000005" y="24" width="9.722222222222223" height="9.722222222222223" as="geometry" />
        </mxCell>
        <mxCell id="S6ZuTX8GFXmOVU9LahuD-442" style="edgeStyle=none;shape=connector;rounded=0;orthogonalLoop=1;jettySize=auto;html=1;exitX=1;exitY=0;exitDx=0;exitDy=0;entryX=0.5;entryY=1;entryDx=0;entryDy=0;strokeColor=default;align=center;verticalAlign=middle;fontFamily=Helvetica;fontSize=11;fontColor=default;labelBackgroundColor=default;startFill=0;endArrow=none;" edge="1" parent="S6ZuTX8GFXmOVU9LahuD-437" source="S6ZuTX8GFXmOVU9LahuD-443" target="S6ZuTX8GFXmOVU9LahuD-448">
          <mxGeometry relative="1" as="geometry" />
        </mxCell>
        <mxCell id="S6ZuTX8GFXmOVU9LahuD-443" value="" style="ellipse;whiteSpace=wrap;html=1;aspect=fixed;movable=1;resizable=1;rotatable=1;deletable=1;editable=1;locked=0;connectable=1;fillColor=#dae8fc;strokeColor=#6c8ebf;" vertex="1" parent="S6ZuTX8GFXmOVU9LahuD-437">
          <mxGeometry x="30" y="57.72" width="9.722222222222223" height="9.722222222222223" as="geometry" />
        </mxCell>
        <mxCell id="S6ZuTX8GFXmOVU9LahuD-444" style="edgeStyle=none;shape=connector;rounded=0;orthogonalLoop=1;jettySize=auto;html=1;exitX=0;exitY=1;exitDx=0;exitDy=0;entryX=1;entryY=0;entryDx=0;entryDy=0;strokeColor=default;align=center;verticalAlign=middle;fontFamily=Helvetica;fontSize=11;fontColor=default;labelBackgroundColor=default;startFill=0;endArrow=none;" edge="1" parent="S6ZuTX8GFXmOVU9LahuD-437" source="S6ZuTX8GFXmOVU9LahuD-445" target="S6ZuTX8GFXmOVU9LahuD-441">
          <mxGeometry relative="1" as="geometry" />
        </mxCell>
        <mxCell id="S6ZuTX8GFXmOVU9LahuD-445" value="" style="ellipse;whiteSpace=wrap;html=1;aspect=fixed;movable=1;resizable=1;rotatable=1;deletable=1;editable=1;locked=0;connectable=1;fillColor=#dae8fc;strokeColor=#6c8ebf;" vertex="1" parent="S6ZuTX8GFXmOVU9LahuD-437">
          <mxGeometry x="54.72" y="14.28" width="9.722222222222223" height="9.722222222222223" as="geometry" />
        </mxCell>
        <mxCell id="S6ZuTX8GFXmOVU9LahuD-446" style="edgeStyle=orthogonalEdgeStyle;rounded=0;orthogonalLoop=1;jettySize=auto;html=1;exitX=1;exitY=0.5;exitDx=0;exitDy=0;entryX=0;entryY=0.5;entryDx=0;entryDy=0;startArrow=none;startFill=0;jumpStyle=none;curved=1;endArrow=none;" edge="1" parent="S6ZuTX8GFXmOVU9LahuD-437" source="S6ZuTX8GFXmOVU9LahuD-447" target="S6ZuTX8GFXmOVU9LahuD-439">
          <mxGeometry relative="1" as="geometry" />
        </mxCell>
        <mxCell id="S6ZuTX8GFXmOVU9LahuD-447" value="" style="ellipse;whiteSpace=wrap;html=1;aspect=fixed;movable=1;resizable=1;rotatable=1;deletable=1;editable=1;locked=0;connectable=1;fillColor=#dae8fc;strokeColor=#6c8ebf;" vertex="1" parent="S6ZuTX8GFXmOVU9LahuD-437">
          <mxGeometry x="10" width="9.72" height="9.72" as="geometry" />
        </mxCell>
        <mxCell id="S6ZuTX8GFXmOVU9LahuD-448" value="" style="ellipse;whiteSpace=wrap;html=1;aspect=fixed;movable=1;resizable=1;rotatable=1;deletable=1;editable=1;locked=0;connectable=1;fillColor=#dae8fc;strokeColor=#6c8ebf;" vertex="1" parent="S6ZuTX8GFXmOVU9LahuD-437">
          <mxGeometry x="39.72" y="32.28" width="9.722222222222223" height="9.722222222222223" as="geometry" />
        </mxCell>
        <mxCell id="S6ZuTX8GFXmOVU9LahuD-449" style="edgeStyle=none;shape=connector;rounded=0;orthogonalLoop=1;jettySize=auto;html=1;exitX=1;exitY=0.5;exitDx=0;exitDy=0;entryX=0;entryY=1;entryDx=0;entryDy=0;strokeColor=default;align=center;verticalAlign=middle;fontFamily=Helvetica;fontSize=11;fontColor=default;labelBackgroundColor=default;startFill=0;endArrow=none;" edge="1" parent="S6ZuTX8GFXmOVU9LahuD-437" source="S6ZuTX8GFXmOVU9LahuD-450" target="S6ZuTX8GFXmOVU9LahuD-448">
          <mxGeometry relative="1" as="geometry" />
        </mxCell>
        <mxCell id="S6ZuTX8GFXmOVU9LahuD-450" value="" style="ellipse;whiteSpace=wrap;html=1;aspect=fixed;movable=1;resizable=1;rotatable=1;deletable=1;editable=1;locked=0;connectable=1;fillColor=#dae8fc;strokeColor=#6c8ebf;" vertex="1" parent="S6ZuTX8GFXmOVU9LahuD-437">
          <mxGeometry x="10.000000000000002" y="57.72" width="9.722222222222223" height="9.722222222222223" as="geometry" />
        </mxCell>
        <mxCell id="S6ZuTX8GFXmOVU9LahuD-451" style="rounded=0;orthogonalLoop=1;jettySize=auto;html=1;exitX=1;exitY=1;exitDx=0;exitDy=0;entryX=0;entryY=0.5;entryDx=0;entryDy=0;endArrow=none;startFill=0;" edge="1" parent="S6ZuTX8GFXmOVU9LahuD-437" source="S6ZuTX8GFXmOVU9LahuD-452" target="S6ZuTX8GFXmOVU9LahuD-450">
          <mxGeometry relative="1" as="geometry" />
        </mxCell>
        <mxCell id="S6ZuTX8GFXmOVU9LahuD-452" value="" style="ellipse;whiteSpace=wrap;html=1;aspect=fixed;movable=1;resizable=1;rotatable=1;deletable=1;editable=1;locked=0;connectable=1;fillColor=#dae8fc;strokeColor=#6c8ebf;" vertex="1" parent="S6ZuTX8GFXmOVU9LahuD-437">
          <mxGeometry x="-9.719999999999999" y="48" width="9.722222222222223" height="9.722222222222223" as="geometry" />
        </mxCell>
        <mxCell id="S6ZuTX8GFXmOVU9LahuD-453" style="rounded=0;orthogonalLoop=1;jettySize=auto;html=1;exitX=1;exitY=0;exitDx=0;exitDy=0;entryX=0;entryY=1;entryDx=0;entryDy=0;endArrow=none;startFill=0;" edge="1" parent="S6ZuTX8GFXmOVU9LahuD-435" source="S6ZuTX8GFXmOVU9LahuD-456" target="S6ZuTX8GFXmOVU9LahuD-447">
          <mxGeometry relative="1" as="geometry" />
        </mxCell>
        <mxCell id="S6ZuTX8GFXmOVU9LahuD-454" style="edgeStyle=orthogonalEdgeStyle;rounded=0;orthogonalLoop=1;jettySize=auto;html=1;exitX=0.5;exitY=1;exitDx=0;exitDy=0;entryX=0.5;entryY=0;entryDx=0;entryDy=0;endArrow=none;startFill=0;" edge="1" parent="S6ZuTX8GFXmOVU9LahuD-435" source="S6ZuTX8GFXmOVU9LahuD-456" target="S6ZuTX8GFXmOVU9LahuD-452">
          <mxGeometry relative="1" as="geometry" />
        </mxCell>
        <mxCell id="S6ZuTX8GFXmOVU9LahuD-455" style="edgeStyle=none;shape=connector;rounded=0;orthogonalLoop=1;jettySize=auto;html=1;exitX=1;exitY=0.5;exitDx=0;exitDy=0;entryX=0;entryY=0.5;entryDx=0;entryDy=0;strokeColor=default;align=center;verticalAlign=middle;fontFamily=Helvetica;fontSize=11;fontColor=default;labelBackgroundColor=default;startFill=0;endArrow=none;" edge="1" parent="S6ZuTX8GFXmOVU9LahuD-435" source="S6ZuTX8GFXmOVU9LahuD-456" target="S6ZuTX8GFXmOVU9LahuD-441">
          <mxGeometry relative="1" as="geometry" />
        </mxCell>
        <mxCell id="S6ZuTX8GFXmOVU9LahuD-456" value="" style="ellipse;whiteSpace=wrap;html=1;aspect=fixed;movable=1;resizable=1;rotatable=1;deletable=1;editable=1;locked=0;connectable=1;fillColor=#707070;strokeColor=#6c8ebf;" vertex="1" parent="S6ZuTX8GFXmOVU9LahuD-435">
          <mxGeometry y="24.419999999999987" width="9.722222222222223" height="9.722222222222223" as="geometry" />
        </mxCell>
        <mxCell id="S6ZuTX8GFXmOVU9LahuD-457" style="edgeStyle=none;shape=connector;rounded=0;orthogonalLoop=1;jettySize=auto;html=1;exitX=0.5;exitY=0;exitDx=0;exitDy=0;entryX=0.5;entryY=1;entryDx=0;entryDy=0;strokeColor=default;align=center;verticalAlign=middle;fontFamily=Helvetica;fontSize=11;fontColor=default;labelBackgroundColor=default;startFill=0;endArrow=none;" edge="1" parent="S6ZuTX8GFXmOVU9LahuD-435" source="S6ZuTX8GFXmOVU9LahuD-458" target="S6ZuTX8GFXmOVU9LahuD-445">
          <mxGeometry relative="1" as="geometry" />
        </mxCell>
        <mxCell id="S6ZuTX8GFXmOVU9LahuD-458" value="" style="ellipse;whiteSpace=wrap;html=1;aspect=fixed;movable=1;resizable=1;rotatable=1;deletable=1;editable=1;locked=0;connectable=1;fillColor=#dae8fc;strokeColor=#6c8ebf;" vertex="1" parent="S6ZuTX8GFXmOVU9LahuD-435">
          <mxGeometry x="65" y="40.140000000000015" width="9.722222222222223" height="9.722222222222223" as="geometry" />
        </mxCell>
        <mxCell id="S6ZuTX8GFXmOVU9LahuD-459" style="edgeStyle=none;shape=connector;rounded=0;orthogonalLoop=1;jettySize=auto;html=1;exitX=1;exitY=0.5;exitDx=0;exitDy=0;entryX=0;entryY=1;entryDx=0;entryDy=0;strokeColor=default;align=center;verticalAlign=middle;fontFamily=Helvetica;fontSize=11;fontColor=default;labelBackgroundColor=default;startFill=0;endArrow=none;" edge="1" parent="S6ZuTX8GFXmOVU9LahuD-435" source="S6ZuTX8GFXmOVU9LahuD-443" target="S6ZuTX8GFXmOVU9LahuD-458">
          <mxGeometry relative="1" as="geometry" />
        </mxCell>
        <mxCell id="S6ZuTX8GFXmOVU9LahuD-460" style="edgeStyle=none;shape=connector;rounded=0;orthogonalLoop=1;jettySize=auto;html=1;exitX=1;exitY=0.5;exitDx=0;exitDy=0;entryX=0;entryY=0;entryDx=0;entryDy=0;strokeColor=default;align=center;verticalAlign=middle;fontFamily=Helvetica;fontSize=11;fontColor=default;labelBackgroundColor=default;startFill=0;endArrow=none;" edge="1" parent="S6ZuTX8GFXmOVU9LahuD-435" source="S6ZuTX8GFXmOVU9LahuD-448" target="S6ZuTX8GFXmOVU9LahuD-458">
          <mxGeometry relative="1" as="geometry" />
        </mxCell>
        <mxCell id="S6ZuTX8GFXmOVU9LahuD-634" value="&lt;b style=&quot;forced-color-adjust: none; color: rgb(0, 0, 0); font-family: &amp;quot;Times New Roman&amp;quot;; font-size: 10px; font-style: normal; font-variant-ligatures: normal; font-variant-caps: normal; letter-spacing: normal; orphans: 2; text-align: center; text-indent: 0px; text-transform: none; widows: 2; word-spacing: 0px; -webkit-text-stroke-width: 0px; white-space: nowrap; background-color: rgb(255, 255, 255); text-decoration-thickness: initial; text-decoration-style: initial; text-decoration-color: initial;&quot;&gt;ReLU&lt;/b&gt;" style="text;whiteSpace=wrap;html=1;fontFamily=Helvetica;fontSize=11;fontColor=default;labelBackgroundColor=default;rotation=20;" vertex="1" parent="S6ZuTX8GFXmOVU9LahuD-435">
          <mxGeometry x="-40.99555555555571" y="23.003333333333273" width="64" height="35" as="geometry" />
        </mxCell>
        <mxCell id="S6ZuTX8GFXmOVU9LahuD-461" value="" style="group" vertex="1" connectable="0" parent="1">
          <mxGeometry x="432" y="142" width="78.69" height="108" as="geometry" />
        </mxCell>
        <mxCell id="S6ZuTX8GFXmOVU9LahuD-462" value="" style="shape=parallelogram;perimeter=parallelogramPerimeter;whiteSpace=wrap;html=1;fixedSize=1;direction=south;rotation=75;fillColor=#FFE0B2;strokeColor=#36393d;" vertex="1" parent="S6ZuTX8GFXmOVU9LahuD-461">
          <mxGeometry x="-3.25" y="-20.22" width="74.72" height="107.48" as="geometry" />
        </mxCell>
        <mxCell id="S6ZuTX8GFXmOVU9LahuD-463" value="" style="group;movable=0;resizable=0;rotatable=0;deletable=0;editable=0;locked=1;connectable=0;" vertex="1" connectable="0" parent="S6ZuTX8GFXmOVU9LahuD-461">
          <mxGeometry x="9.719999999999999" width="68.97" height="94.96000000000001" as="geometry" />
        </mxCell>
        <mxCell id="S6ZuTX8GFXmOVU9LahuD-464" style="edgeStyle=none;shape=connector;rounded=0;orthogonalLoop=1;jettySize=auto;html=1;exitX=1;exitY=1;exitDx=0;exitDy=0;entryX=0;entryY=0;entryDx=0;entryDy=0;strokeColor=default;align=center;verticalAlign=middle;fontFamily=Helvetica;fontSize=11;fontColor=default;labelBackgroundColor=default;startFill=0;endArrow=none;" edge="1" parent="S6ZuTX8GFXmOVU9LahuD-463" source="S6ZuTX8GFXmOVU9LahuD-465" target="S6ZuTX8GFXmOVU9LahuD-471">
          <mxGeometry relative="1" as="geometry" />
        </mxCell>
        <mxCell id="S6ZuTX8GFXmOVU9LahuD-465" value="" style="ellipse;whiteSpace=wrap;html=1;aspect=fixed;movable=1;resizable=1;rotatable=1;deletable=1;editable=1;locked=0;connectable=1;fillColor=#dae8fc;strokeColor=#6c8ebf;" vertex="1" parent="S6ZuTX8GFXmOVU9LahuD-463">
          <mxGeometry x="39.72" width="9.722222222222223" height="9.722222222222223" as="geometry" />
        </mxCell>
        <mxCell id="S6ZuTX8GFXmOVU9LahuD-466" style="edgeStyle=none;shape=connector;rounded=0;orthogonalLoop=1;jettySize=auto;html=1;exitX=0;exitY=1;exitDx=0;exitDy=0;entryX=1;entryY=0;entryDx=0;entryDy=0;strokeColor=default;align=center;verticalAlign=middle;fontFamily=Helvetica;fontSize=11;fontColor=default;labelBackgroundColor=default;startFill=0;endArrow=none;" edge="1" parent="S6ZuTX8GFXmOVU9LahuD-463" source="S6ZuTX8GFXmOVU9LahuD-467" target="S6ZuTX8GFXmOVU9LahuD-476">
          <mxGeometry relative="1" as="geometry" />
        </mxCell>
        <mxCell id="S6ZuTX8GFXmOVU9LahuD-467" value="" style="ellipse;whiteSpace=wrap;html=1;aspect=fixed;movable=1;resizable=1;rotatable=1;deletable=1;editable=1;locked=0;connectable=1;fillColor=#dae8fc;strokeColor=#6c8ebf;" vertex="1" parent="S6ZuTX8GFXmOVU9LahuD-463">
          <mxGeometry x="20.280000000000005" y="24" width="9.722222222222223" height="9.722222222222223" as="geometry" />
        </mxCell>
        <mxCell id="S6ZuTX8GFXmOVU9LahuD-468" style="edgeStyle=none;shape=connector;rounded=0;orthogonalLoop=1;jettySize=auto;html=1;exitX=1;exitY=0;exitDx=0;exitDy=0;entryX=0.5;entryY=1;entryDx=0;entryDy=0;strokeColor=default;align=center;verticalAlign=middle;fontFamily=Helvetica;fontSize=11;fontColor=default;labelBackgroundColor=default;startFill=0;endArrow=none;" edge="1" parent="S6ZuTX8GFXmOVU9LahuD-463" source="S6ZuTX8GFXmOVU9LahuD-469" target="S6ZuTX8GFXmOVU9LahuD-474">
          <mxGeometry relative="1" as="geometry" />
        </mxCell>
        <mxCell id="S6ZuTX8GFXmOVU9LahuD-469" value="" style="ellipse;whiteSpace=wrap;html=1;aspect=fixed;movable=1;resizable=1;rotatable=1;deletable=1;editable=1;locked=0;connectable=1;fillColor=#dae8fc;strokeColor=#6c8ebf;" vertex="1" parent="S6ZuTX8GFXmOVU9LahuD-463">
          <mxGeometry x="30" y="57.72" width="9.722222222222223" height="9.722222222222223" as="geometry" />
        </mxCell>
        <mxCell id="S6ZuTX8GFXmOVU9LahuD-470" style="edgeStyle=none;shape=connector;rounded=0;orthogonalLoop=1;jettySize=auto;html=1;exitX=0;exitY=1;exitDx=0;exitDy=0;entryX=1;entryY=0;entryDx=0;entryDy=0;strokeColor=default;align=center;verticalAlign=middle;fontFamily=Helvetica;fontSize=11;fontColor=default;labelBackgroundColor=default;startFill=0;endArrow=none;" edge="1" parent="S6ZuTX8GFXmOVU9LahuD-463" source="S6ZuTX8GFXmOVU9LahuD-471" target="S6ZuTX8GFXmOVU9LahuD-467">
          <mxGeometry relative="1" as="geometry" />
        </mxCell>
        <mxCell id="S6ZuTX8GFXmOVU9LahuD-471" value="" style="ellipse;whiteSpace=wrap;html=1;aspect=fixed;movable=1;resizable=1;rotatable=1;deletable=1;editable=1;locked=0;connectable=1;fillColor=#dae8fc;strokeColor=#6c8ebf;" vertex="1" parent="S6ZuTX8GFXmOVU9LahuD-463">
          <mxGeometry x="54.72" y="14.28" width="9.722222222222223" height="9.722222222222223" as="geometry" />
        </mxCell>
        <mxCell id="S6ZuTX8GFXmOVU9LahuD-472" style="edgeStyle=orthogonalEdgeStyle;rounded=0;orthogonalLoop=1;jettySize=auto;html=1;exitX=1;exitY=0.5;exitDx=0;exitDy=0;entryX=0;entryY=0.5;entryDx=0;entryDy=0;startArrow=none;startFill=0;jumpStyle=none;curved=1;endArrow=none;" edge="1" parent="S6ZuTX8GFXmOVU9LahuD-463" source="S6ZuTX8GFXmOVU9LahuD-473" target="S6ZuTX8GFXmOVU9LahuD-465">
          <mxGeometry relative="1" as="geometry" />
        </mxCell>
        <mxCell id="S6ZuTX8GFXmOVU9LahuD-473" value="" style="ellipse;whiteSpace=wrap;html=1;aspect=fixed;movable=1;resizable=1;rotatable=1;deletable=1;editable=1;locked=0;connectable=1;fillColor=#dae8fc;strokeColor=#6c8ebf;" vertex="1" parent="S6ZuTX8GFXmOVU9LahuD-463">
          <mxGeometry x="10" width="9.72" height="9.72" as="geometry" />
        </mxCell>
        <mxCell id="S6ZuTX8GFXmOVU9LahuD-474" value="" style="ellipse;whiteSpace=wrap;html=1;aspect=fixed;movable=1;resizable=1;rotatable=1;deletable=1;editable=1;locked=0;connectable=1;fillColor=#dae8fc;strokeColor=#6c8ebf;" vertex="1" parent="S6ZuTX8GFXmOVU9LahuD-463">
          <mxGeometry x="39.72" y="32.28" width="9.722222222222223" height="9.722222222222223" as="geometry" />
        </mxCell>
        <mxCell id="S6ZuTX8GFXmOVU9LahuD-475" style="edgeStyle=none;shape=connector;rounded=0;orthogonalLoop=1;jettySize=auto;html=1;exitX=1;exitY=0.5;exitDx=0;exitDy=0;entryX=0;entryY=1;entryDx=0;entryDy=0;strokeColor=default;align=center;verticalAlign=middle;fontFamily=Helvetica;fontSize=11;fontColor=default;labelBackgroundColor=default;startFill=0;endArrow=none;" edge="1" parent="S6ZuTX8GFXmOVU9LahuD-463" source="S6ZuTX8GFXmOVU9LahuD-476" target="S6ZuTX8GFXmOVU9LahuD-474">
          <mxGeometry relative="1" as="geometry" />
        </mxCell>
        <mxCell id="S6ZuTX8GFXmOVU9LahuD-476" value="" style="ellipse;whiteSpace=wrap;html=1;aspect=fixed;movable=1;resizable=1;rotatable=1;deletable=1;editable=1;locked=0;connectable=1;fillColor=#dae8fc;strokeColor=#6c8ebf;" vertex="1" parent="S6ZuTX8GFXmOVU9LahuD-463">
          <mxGeometry x="10.000000000000002" y="57.72" width="9.722222222222223" height="9.722222222222223" as="geometry" />
        </mxCell>
        <mxCell id="S6ZuTX8GFXmOVU9LahuD-477" style="rounded=0;orthogonalLoop=1;jettySize=auto;html=1;exitX=1;exitY=1;exitDx=0;exitDy=0;entryX=0;entryY=0.5;entryDx=0;entryDy=0;endArrow=none;startFill=0;" edge="1" parent="S6ZuTX8GFXmOVU9LahuD-463" source="S6ZuTX8GFXmOVU9LahuD-478" target="S6ZuTX8GFXmOVU9LahuD-476">
          <mxGeometry relative="1" as="geometry" />
        </mxCell>
        <mxCell id="S6ZuTX8GFXmOVU9LahuD-478" value="" style="ellipse;whiteSpace=wrap;html=1;aspect=fixed;movable=1;resizable=1;rotatable=1;deletable=1;editable=1;locked=0;connectable=1;fillColor=#dae8fc;strokeColor=#6c8ebf;" vertex="1" parent="S6ZuTX8GFXmOVU9LahuD-463">
          <mxGeometry x="-9.719999999999999" y="48" width="9.722222222222223" height="9.722222222222223" as="geometry" />
        </mxCell>
        <mxCell id="S6ZuTX8GFXmOVU9LahuD-479" style="rounded=0;orthogonalLoop=1;jettySize=auto;html=1;exitX=1;exitY=0;exitDx=0;exitDy=0;entryX=0;entryY=1;entryDx=0;entryDy=0;endArrow=none;startFill=0;" edge="1" parent="S6ZuTX8GFXmOVU9LahuD-461" source="S6ZuTX8GFXmOVU9LahuD-482" target="S6ZuTX8GFXmOVU9LahuD-473">
          <mxGeometry relative="1" as="geometry" />
        </mxCell>
        <mxCell id="S6ZuTX8GFXmOVU9LahuD-480" style="edgeStyle=orthogonalEdgeStyle;rounded=0;orthogonalLoop=1;jettySize=auto;html=1;exitX=0.5;exitY=1;exitDx=0;exitDy=0;entryX=0.5;entryY=0;entryDx=0;entryDy=0;endArrow=none;startFill=0;" edge="1" parent="S6ZuTX8GFXmOVU9LahuD-461" source="S6ZuTX8GFXmOVU9LahuD-482" target="S6ZuTX8GFXmOVU9LahuD-478">
          <mxGeometry relative="1" as="geometry" />
        </mxCell>
        <mxCell id="S6ZuTX8GFXmOVU9LahuD-481" style="edgeStyle=none;shape=connector;rounded=0;orthogonalLoop=1;jettySize=auto;html=1;exitX=1;exitY=0.5;exitDx=0;exitDy=0;entryX=0;entryY=0.5;entryDx=0;entryDy=0;strokeColor=default;align=center;verticalAlign=middle;fontFamily=Helvetica;fontSize=11;fontColor=default;labelBackgroundColor=default;startFill=0;endArrow=none;" edge="1" parent="S6ZuTX8GFXmOVU9LahuD-461" source="S6ZuTX8GFXmOVU9LahuD-482" target="S6ZuTX8GFXmOVU9LahuD-467">
          <mxGeometry relative="1" as="geometry" />
        </mxCell>
        <mxCell id="S6ZuTX8GFXmOVU9LahuD-482" value="" style="ellipse;whiteSpace=wrap;html=1;aspect=fixed;movable=1;resizable=1;rotatable=1;deletable=1;editable=1;locked=0;connectable=1;fillColor=#dae8fc;strokeColor=#6c8ebf;" vertex="1" parent="S6ZuTX8GFXmOVU9LahuD-461">
          <mxGeometry y="24.419999999999987" width="9.722222222222223" height="9.722222222222223" as="geometry" />
        </mxCell>
        <mxCell id="S6ZuTX8GFXmOVU9LahuD-483" style="edgeStyle=none;shape=connector;rounded=0;orthogonalLoop=1;jettySize=auto;html=1;exitX=0.5;exitY=0;exitDx=0;exitDy=0;entryX=0.5;entryY=1;entryDx=0;entryDy=0;strokeColor=default;align=center;verticalAlign=middle;fontFamily=Helvetica;fontSize=11;fontColor=default;labelBackgroundColor=default;startFill=0;endArrow=none;" edge="1" parent="S6ZuTX8GFXmOVU9LahuD-461" source="S6ZuTX8GFXmOVU9LahuD-484" target="S6ZuTX8GFXmOVU9LahuD-471">
          <mxGeometry relative="1" as="geometry" />
        </mxCell>
        <mxCell id="S6ZuTX8GFXmOVU9LahuD-484" value="" style="ellipse;whiteSpace=wrap;html=1;aspect=fixed;movable=1;resizable=1;rotatable=1;deletable=1;editable=1;locked=0;connectable=1;fillColor=#dae8fc;strokeColor=#6c8ebf;" vertex="1" parent="S6ZuTX8GFXmOVU9LahuD-461">
          <mxGeometry x="65" y="40.140000000000015" width="9.722222222222223" height="9.722222222222223" as="geometry" />
        </mxCell>
        <mxCell id="S6ZuTX8GFXmOVU9LahuD-485" style="edgeStyle=none;shape=connector;rounded=0;orthogonalLoop=1;jettySize=auto;html=1;exitX=1;exitY=0.5;exitDx=0;exitDy=0;entryX=0;entryY=1;entryDx=0;entryDy=0;strokeColor=default;align=center;verticalAlign=middle;fontFamily=Helvetica;fontSize=11;fontColor=default;labelBackgroundColor=default;startFill=0;endArrow=none;" edge="1" parent="S6ZuTX8GFXmOVU9LahuD-461" source="S6ZuTX8GFXmOVU9LahuD-469" target="S6ZuTX8GFXmOVU9LahuD-484">
          <mxGeometry relative="1" as="geometry" />
        </mxCell>
        <mxCell id="S6ZuTX8GFXmOVU9LahuD-486" style="edgeStyle=none;shape=connector;rounded=0;orthogonalLoop=1;jettySize=auto;html=1;exitX=1;exitY=0.5;exitDx=0;exitDy=0;entryX=0;entryY=0;entryDx=0;entryDy=0;strokeColor=default;align=center;verticalAlign=middle;fontFamily=Helvetica;fontSize=11;fontColor=default;labelBackgroundColor=default;startFill=0;endArrow=none;" edge="1" parent="S6ZuTX8GFXmOVU9LahuD-461" source="S6ZuTX8GFXmOVU9LahuD-474" target="S6ZuTX8GFXmOVU9LahuD-484">
          <mxGeometry relative="1" as="geometry" />
        </mxCell>
        <mxCell id="S6ZuTX8GFXmOVU9LahuD-638" value="&lt;div style=&quot;text-align: center;&quot;&gt;&lt;font face=&quot;Times New Roman&quot;&gt;&lt;span style=&quot;font-size: 14px; text-wrap: nowrap;&quot;&gt;&lt;b&gt;...&lt;/b&gt;&lt;/span&gt;&lt;/font&gt;&lt;/div&gt;" style="text;whiteSpace=wrap;html=1;fontFamily=Helvetica;fontSize=11;fontColor=default;labelBackgroundColor=default;rotation=20;" vertex="1" parent="S6ZuTX8GFXmOVU9LahuD-461">
          <mxGeometry x="-31" y="73" width="64" height="35" as="geometry" />
        </mxCell>
        <mxCell id="S6ZuTX8GFXmOVU9LahuD-487" value="" style="group" vertex="1" connectable="0" parent="1">
          <mxGeometry x="452" y="150" width="138.72444444444432" height="99.00333333333327" as="geometry" />
        </mxCell>
        <mxCell id="S6ZuTX8GFXmOVU9LahuD-488" value="" style="shape=parallelogram;perimeter=parallelogramPerimeter;whiteSpace=wrap;html=1;fixedSize=1;direction=south;rotation=75;fillColor=#FFF3E0;strokeColor=#36393d;" vertex="1" parent="S6ZuTX8GFXmOVU9LahuD-487">
          <mxGeometry x="-3.25" y="-20.22" width="74.72" height="107.48" as="geometry" />
        </mxCell>
        <mxCell id="S6ZuTX8GFXmOVU9LahuD-489" value="" style="group;movable=0;resizable=0;rotatable=0;deletable=0;editable=0;locked=1;connectable=0;" vertex="1" connectable="0" parent="S6ZuTX8GFXmOVU9LahuD-487">
          <mxGeometry x="9.719999999999999" width="68.97" height="94.96000000000001" as="geometry" />
        </mxCell>
        <mxCell id="S6ZuTX8GFXmOVU9LahuD-490" style="edgeStyle=none;shape=connector;rounded=0;orthogonalLoop=1;jettySize=auto;html=1;exitX=1;exitY=1;exitDx=0;exitDy=0;entryX=0;entryY=0;entryDx=0;entryDy=0;strokeColor=default;align=center;verticalAlign=middle;fontFamily=Helvetica;fontSize=11;fontColor=default;labelBackgroundColor=default;startFill=0;endArrow=none;" edge="1" parent="S6ZuTX8GFXmOVU9LahuD-489" source="S6ZuTX8GFXmOVU9LahuD-491" target="S6ZuTX8GFXmOVU9LahuD-497">
          <mxGeometry relative="1" as="geometry" />
        </mxCell>
        <mxCell id="S6ZuTX8GFXmOVU9LahuD-491" value="" style="ellipse;whiteSpace=wrap;html=1;aspect=fixed;movable=1;resizable=1;rotatable=1;deletable=1;editable=1;locked=0;connectable=1;fillColor=#dae8fc;strokeColor=#6c8ebf;" vertex="1" parent="S6ZuTX8GFXmOVU9LahuD-489">
          <mxGeometry x="39.72" width="9.722222222222223" height="9.722222222222223" as="geometry" />
        </mxCell>
        <mxCell id="S6ZuTX8GFXmOVU9LahuD-492" style="edgeStyle=none;shape=connector;rounded=0;orthogonalLoop=1;jettySize=auto;html=1;exitX=0;exitY=1;exitDx=0;exitDy=0;entryX=1;entryY=0;entryDx=0;entryDy=0;strokeColor=default;align=center;verticalAlign=middle;fontFamily=Helvetica;fontSize=11;fontColor=default;labelBackgroundColor=default;startFill=0;endArrow=none;" edge="1" parent="S6ZuTX8GFXmOVU9LahuD-489" source="S6ZuTX8GFXmOVU9LahuD-493" target="S6ZuTX8GFXmOVU9LahuD-502">
          <mxGeometry relative="1" as="geometry" />
        </mxCell>
        <mxCell id="S6ZuTX8GFXmOVU9LahuD-493" value="" style="ellipse;whiteSpace=wrap;html=1;aspect=fixed;movable=1;resizable=1;rotatable=1;deletable=1;editable=1;locked=0;connectable=1;fillColor=#707070;strokeColor=#6c8ebf;" vertex="1" parent="S6ZuTX8GFXmOVU9LahuD-489">
          <mxGeometry x="20.280000000000005" y="24" width="9.722222222222223" height="9.722222222222223" as="geometry" />
        </mxCell>
        <mxCell id="S6ZuTX8GFXmOVU9LahuD-494" style="edgeStyle=none;shape=connector;rounded=0;orthogonalLoop=1;jettySize=auto;html=1;exitX=1;exitY=0;exitDx=0;exitDy=0;entryX=0.5;entryY=1;entryDx=0;entryDy=0;strokeColor=default;align=center;verticalAlign=middle;fontFamily=Helvetica;fontSize=11;fontColor=default;labelBackgroundColor=default;startFill=0;endArrow=none;" edge="1" parent="S6ZuTX8GFXmOVU9LahuD-489" source="S6ZuTX8GFXmOVU9LahuD-495" target="S6ZuTX8GFXmOVU9LahuD-500">
          <mxGeometry relative="1" as="geometry" />
        </mxCell>
        <mxCell id="S6ZuTX8GFXmOVU9LahuD-495" value="" style="ellipse;whiteSpace=wrap;html=1;aspect=fixed;movable=1;resizable=1;rotatable=1;deletable=1;editable=1;locked=0;connectable=1;fillColor=#dae8fc;strokeColor=#6c8ebf;" vertex="1" parent="S6ZuTX8GFXmOVU9LahuD-489">
          <mxGeometry x="30" y="57.72" width="9.722222222222223" height="9.722222222222223" as="geometry" />
        </mxCell>
        <mxCell id="S6ZuTX8GFXmOVU9LahuD-496" style="edgeStyle=none;shape=connector;rounded=0;orthogonalLoop=1;jettySize=auto;html=1;exitX=0;exitY=1;exitDx=0;exitDy=0;entryX=1;entryY=0;entryDx=0;entryDy=0;strokeColor=default;align=center;verticalAlign=middle;fontFamily=Helvetica;fontSize=11;fontColor=default;labelBackgroundColor=default;startFill=0;endArrow=none;" edge="1" parent="S6ZuTX8GFXmOVU9LahuD-489" source="S6ZuTX8GFXmOVU9LahuD-497" target="S6ZuTX8GFXmOVU9LahuD-493">
          <mxGeometry relative="1" as="geometry" />
        </mxCell>
        <mxCell id="S6ZuTX8GFXmOVU9LahuD-497" value="" style="ellipse;whiteSpace=wrap;html=1;aspect=fixed;movable=1;resizable=1;rotatable=1;deletable=1;editable=1;locked=0;connectable=1;fillColor=#dae8fc;strokeColor=#6c8ebf;" vertex="1" parent="S6ZuTX8GFXmOVU9LahuD-489">
          <mxGeometry x="54.72" y="14.28" width="9.722222222222223" height="9.722222222222223" as="geometry" />
        </mxCell>
        <mxCell id="S6ZuTX8GFXmOVU9LahuD-498" style="edgeStyle=orthogonalEdgeStyle;rounded=0;orthogonalLoop=1;jettySize=auto;html=1;exitX=1;exitY=0.5;exitDx=0;exitDy=0;entryX=0;entryY=0.5;entryDx=0;entryDy=0;startArrow=none;startFill=0;jumpStyle=none;curved=1;endArrow=none;" edge="1" parent="S6ZuTX8GFXmOVU9LahuD-489" source="S6ZuTX8GFXmOVU9LahuD-499" target="S6ZuTX8GFXmOVU9LahuD-491">
          <mxGeometry relative="1" as="geometry" />
        </mxCell>
        <mxCell id="S6ZuTX8GFXmOVU9LahuD-499" value="" style="ellipse;whiteSpace=wrap;html=1;aspect=fixed;movable=1;resizable=1;rotatable=1;deletable=1;editable=1;locked=0;connectable=1;fillColor=#dae8fc;strokeColor=#6c8ebf;" vertex="1" parent="S6ZuTX8GFXmOVU9LahuD-489">
          <mxGeometry x="10" width="9.72" height="9.72" as="geometry" />
        </mxCell>
        <mxCell id="S6ZuTX8GFXmOVU9LahuD-500" value="" style="ellipse;whiteSpace=wrap;html=1;aspect=fixed;movable=1;resizable=1;rotatable=1;deletable=1;editable=1;locked=0;connectable=1;fillColor=#dae8fc;strokeColor=#6c8ebf;" vertex="1" parent="S6ZuTX8GFXmOVU9LahuD-489">
          <mxGeometry x="39.72" y="32.28" width="9.722222222222223" height="9.722222222222223" as="geometry" />
        </mxCell>
        <mxCell id="S6ZuTX8GFXmOVU9LahuD-501" style="edgeStyle=none;shape=connector;rounded=0;orthogonalLoop=1;jettySize=auto;html=1;exitX=1;exitY=0.5;exitDx=0;exitDy=0;entryX=0;entryY=1;entryDx=0;entryDy=0;strokeColor=default;align=center;verticalAlign=middle;fontFamily=Helvetica;fontSize=11;fontColor=default;labelBackgroundColor=default;startFill=0;endArrow=none;" edge="1" parent="S6ZuTX8GFXmOVU9LahuD-489" source="S6ZuTX8GFXmOVU9LahuD-502" target="S6ZuTX8GFXmOVU9LahuD-500">
          <mxGeometry relative="1" as="geometry" />
        </mxCell>
        <mxCell id="S6ZuTX8GFXmOVU9LahuD-502" value="" style="ellipse;whiteSpace=wrap;html=1;aspect=fixed;movable=1;resizable=1;rotatable=1;deletable=1;editable=1;locked=0;connectable=1;fillColor=#dae8fc;strokeColor=#6c8ebf;" vertex="1" parent="S6ZuTX8GFXmOVU9LahuD-489">
          <mxGeometry x="10.000000000000002" y="57.72" width="9.722222222222223" height="9.722222222222223" as="geometry" />
        </mxCell>
        <mxCell id="S6ZuTX8GFXmOVU9LahuD-503" style="rounded=0;orthogonalLoop=1;jettySize=auto;html=1;exitX=1;exitY=1;exitDx=0;exitDy=0;entryX=0;entryY=0.5;entryDx=0;entryDy=0;endArrow=none;startFill=0;" edge="1" parent="S6ZuTX8GFXmOVU9LahuD-489" source="S6ZuTX8GFXmOVU9LahuD-504" target="S6ZuTX8GFXmOVU9LahuD-502">
          <mxGeometry relative="1" as="geometry" />
        </mxCell>
        <mxCell id="S6ZuTX8GFXmOVU9LahuD-504" value="" style="ellipse;whiteSpace=wrap;html=1;aspect=fixed;movable=1;resizable=1;rotatable=1;deletable=1;editable=1;locked=0;connectable=1;fillColor=#dae8fc;strokeColor=#6c8ebf;" vertex="1" parent="S6ZuTX8GFXmOVU9LahuD-489">
          <mxGeometry x="-9.719999999999999" y="48" width="9.722222222222223" height="9.722222222222223" as="geometry" />
        </mxCell>
        <mxCell id="S6ZuTX8GFXmOVU9LahuD-505" style="rounded=0;orthogonalLoop=1;jettySize=auto;html=1;exitX=1;exitY=0;exitDx=0;exitDy=0;entryX=0;entryY=1;entryDx=0;entryDy=0;endArrow=none;startFill=0;" edge="1" parent="S6ZuTX8GFXmOVU9LahuD-487" source="S6ZuTX8GFXmOVU9LahuD-508" target="S6ZuTX8GFXmOVU9LahuD-499">
          <mxGeometry relative="1" as="geometry" />
        </mxCell>
        <mxCell id="S6ZuTX8GFXmOVU9LahuD-506" style="edgeStyle=orthogonalEdgeStyle;rounded=0;orthogonalLoop=1;jettySize=auto;html=1;exitX=0.5;exitY=1;exitDx=0;exitDy=0;entryX=0.5;entryY=0;entryDx=0;entryDy=0;endArrow=none;startFill=0;" edge="1" parent="S6ZuTX8GFXmOVU9LahuD-487" source="S6ZuTX8GFXmOVU9LahuD-508" target="S6ZuTX8GFXmOVU9LahuD-504">
          <mxGeometry relative="1" as="geometry" />
        </mxCell>
        <mxCell id="S6ZuTX8GFXmOVU9LahuD-507" style="edgeStyle=none;shape=connector;rounded=0;orthogonalLoop=1;jettySize=auto;html=1;exitX=1;exitY=0.5;exitDx=0;exitDy=0;entryX=0;entryY=0.5;entryDx=0;entryDy=0;strokeColor=default;align=center;verticalAlign=middle;fontFamily=Helvetica;fontSize=11;fontColor=default;labelBackgroundColor=default;startFill=0;endArrow=none;" edge="1" parent="S6ZuTX8GFXmOVU9LahuD-487" source="S6ZuTX8GFXmOVU9LahuD-508" target="S6ZuTX8GFXmOVU9LahuD-493">
          <mxGeometry relative="1" as="geometry" />
        </mxCell>
        <mxCell id="S6ZuTX8GFXmOVU9LahuD-508" value="" style="ellipse;whiteSpace=wrap;html=1;aspect=fixed;movable=1;resizable=1;rotatable=1;deletable=1;editable=1;locked=0;connectable=1;fillColor=#dae8fc;strokeColor=#6c8ebf;" vertex="1" parent="S6ZuTX8GFXmOVU9LahuD-487">
          <mxGeometry y="24.419999999999987" width="9.722222222222223" height="9.722222222222223" as="geometry" />
        </mxCell>
        <mxCell id="S6ZuTX8GFXmOVU9LahuD-509" style="edgeStyle=none;shape=connector;rounded=0;orthogonalLoop=1;jettySize=auto;html=1;exitX=0.5;exitY=0;exitDx=0;exitDy=0;entryX=0.5;entryY=1;entryDx=0;entryDy=0;strokeColor=default;align=center;verticalAlign=middle;fontFamily=Helvetica;fontSize=11;fontColor=default;labelBackgroundColor=default;startFill=0;endArrow=none;" edge="1" parent="S6ZuTX8GFXmOVU9LahuD-487" source="S6ZuTX8GFXmOVU9LahuD-510" target="S6ZuTX8GFXmOVU9LahuD-497">
          <mxGeometry relative="1" as="geometry" />
        </mxCell>
        <mxCell id="S6ZuTX8GFXmOVU9LahuD-510" value="" style="ellipse;whiteSpace=wrap;html=1;aspect=fixed;movable=1;resizable=1;rotatable=1;deletable=1;editable=1;locked=0;connectable=1;fillColor=#dae8fc;strokeColor=#6c8ebf;" vertex="1" parent="S6ZuTX8GFXmOVU9LahuD-487">
          <mxGeometry x="65" y="40.140000000000015" width="9.722222222222223" height="9.722222222222223" as="geometry" />
        </mxCell>
        <mxCell id="S6ZuTX8GFXmOVU9LahuD-511" style="edgeStyle=none;shape=connector;rounded=0;orthogonalLoop=1;jettySize=auto;html=1;exitX=1;exitY=0.5;exitDx=0;exitDy=0;entryX=0;entryY=1;entryDx=0;entryDy=0;strokeColor=default;align=center;verticalAlign=middle;fontFamily=Helvetica;fontSize=11;fontColor=default;labelBackgroundColor=default;startFill=0;endArrow=none;" edge="1" parent="S6ZuTX8GFXmOVU9LahuD-487" source="S6ZuTX8GFXmOVU9LahuD-495" target="S6ZuTX8GFXmOVU9LahuD-510">
          <mxGeometry relative="1" as="geometry" />
        </mxCell>
        <mxCell id="S6ZuTX8GFXmOVU9LahuD-512" style="edgeStyle=none;shape=connector;rounded=0;orthogonalLoop=1;jettySize=auto;html=1;exitX=1;exitY=0.5;exitDx=0;exitDy=0;entryX=0;entryY=0;entryDx=0;entryDy=0;strokeColor=default;align=center;verticalAlign=middle;fontFamily=Helvetica;fontSize=11;fontColor=default;labelBackgroundColor=default;startFill=0;endArrow=none;" edge="1" parent="S6ZuTX8GFXmOVU9LahuD-487" source="S6ZuTX8GFXmOVU9LahuD-500" target="S6ZuTX8GFXmOVU9LahuD-510">
          <mxGeometry relative="1" as="geometry" />
        </mxCell>
        <mxCell id="S6ZuTX8GFXmOVU9LahuD-748" value="&lt;b style=&quot;forced-color-adjust: none; color: rgb(0, 0, 0); font-family: &amp;quot;Times New Roman&amp;quot;; font-size: 10px; font-style: normal; font-variant-ligatures: normal; font-variant-caps: normal; letter-spacing: normal; orphans: 2; text-align: center; text-indent: 0px; text-transform: none; widows: 2; word-spacing: 0px; -webkit-text-stroke-width: 0px; white-space: nowrap; background-color: rgb(255, 255, 255); text-decoration-thickness: initial; text-decoration-style: initial; text-decoration-color: initial;&quot;&gt;ReLU&lt;/b&gt;" style="text;whiteSpace=wrap;html=1;fontFamily=Helvetica;fontSize=11;fontColor=default;labelBackgroundColor=default;rotation=20;" vertex="1" parent="S6ZuTX8GFXmOVU9LahuD-487">
          <mxGeometry x="71.72444444444432" y="65.00333333333327" width="64" height="35" as="geometry" />
        </mxCell>
        <mxCell id="S6ZuTX8GFXmOVU9LahuD-513" value="" style="group" vertex="1" connectable="0" parent="1">
          <mxGeometry x="566" y="194" width="78.69" height="118.00333333333327" as="geometry" />
        </mxCell>
        <mxCell id="S6ZuTX8GFXmOVU9LahuD-514" value="" style="shape=parallelogram;perimeter=parallelogramPerimeter;whiteSpace=wrap;html=1;fixedSize=1;direction=south;rotation=75;fillColor=#FFD966;strokeColor=#36393d;movable=1;resizable=1;rotatable=1;deletable=1;editable=1;locked=0;connectable=1;" vertex="1" parent="S6ZuTX8GFXmOVU9LahuD-513">
          <mxGeometry x="-3.25" y="-20.22" width="74.72" height="107.48" as="geometry" />
        </mxCell>
        <mxCell id="S6ZuTX8GFXmOVU9LahuD-515" value="" style="group" vertex="1" connectable="0" parent="S6ZuTX8GFXmOVU9LahuD-513">
          <mxGeometry x="9.719999999999999" width="68.97" height="118.00333333333327" as="geometry" />
        </mxCell>
        <mxCell id="S6ZuTX8GFXmOVU9LahuD-516" style="edgeStyle=none;shape=connector;rounded=0;orthogonalLoop=1;jettySize=auto;html=1;exitX=1;exitY=1;exitDx=0;exitDy=0;entryX=0;entryY=0;entryDx=0;entryDy=0;strokeColor=default;align=center;verticalAlign=middle;fontFamily=Helvetica;fontSize=11;fontColor=default;labelBackgroundColor=default;startFill=0;endArrow=none;" edge="1" parent="S6ZuTX8GFXmOVU9LahuD-515" source="S6ZuTX8GFXmOVU9LahuD-517" target="S6ZuTX8GFXmOVU9LahuD-523">
          <mxGeometry relative="1" as="geometry" />
        </mxCell>
        <mxCell id="S6ZuTX8GFXmOVU9LahuD-517" value="" style="ellipse;whiteSpace=wrap;html=1;aspect=fixed;movable=1;resizable=1;rotatable=1;deletable=1;editable=1;locked=0;connectable=1;fillColor=#dae8fc;strokeColor=#6c8ebf;" vertex="1" parent="S6ZuTX8GFXmOVU9LahuD-515">
          <mxGeometry x="39.72" width="9.722222222222223" height="9.722222222222223" as="geometry" />
        </mxCell>
        <mxCell id="S6ZuTX8GFXmOVU9LahuD-518" style="edgeStyle=none;shape=connector;rounded=0;orthogonalLoop=1;jettySize=auto;html=1;exitX=0;exitY=1;exitDx=0;exitDy=0;entryX=1;entryY=0;entryDx=0;entryDy=0;strokeColor=default;align=center;verticalAlign=middle;fontFamily=Helvetica;fontSize=11;fontColor=default;labelBackgroundColor=default;startFill=0;endArrow=none;" edge="1" parent="S6ZuTX8GFXmOVU9LahuD-515" source="S6ZuTX8GFXmOVU9LahuD-519" target="S6ZuTX8GFXmOVU9LahuD-528">
          <mxGeometry relative="1" as="geometry" />
        </mxCell>
        <mxCell id="S6ZuTX8GFXmOVU9LahuD-519" value="" style="ellipse;whiteSpace=wrap;html=1;aspect=fixed;movable=1;resizable=1;rotatable=1;deletable=1;editable=1;locked=0;connectable=1;fillColor=#dae8fc;strokeColor=#6c8ebf;" vertex="1" parent="S6ZuTX8GFXmOVU9LahuD-515">
          <mxGeometry x="20.280000000000005" y="24" width="9.722222222222223" height="9.722222222222223" as="geometry" />
        </mxCell>
        <mxCell id="S6ZuTX8GFXmOVU9LahuD-520" style="edgeStyle=none;shape=connector;rounded=0;orthogonalLoop=1;jettySize=auto;html=1;exitX=1;exitY=0;exitDx=0;exitDy=0;entryX=0.5;entryY=1;entryDx=0;entryDy=0;strokeColor=default;align=center;verticalAlign=middle;fontFamily=Helvetica;fontSize=11;fontColor=default;labelBackgroundColor=default;startFill=0;endArrow=none;" edge="1" parent="S6ZuTX8GFXmOVU9LahuD-515" source="S6ZuTX8GFXmOVU9LahuD-521" target="S6ZuTX8GFXmOVU9LahuD-526">
          <mxGeometry relative="1" as="geometry" />
        </mxCell>
        <mxCell id="S6ZuTX8GFXmOVU9LahuD-521" value="" style="ellipse;whiteSpace=wrap;html=1;aspect=fixed;movable=1;resizable=1;rotatable=1;deletable=1;editable=1;locked=0;connectable=1;fillColor=#dae8fc;strokeColor=#6c8ebf;" vertex="1" parent="S6ZuTX8GFXmOVU9LahuD-515">
          <mxGeometry x="30" y="57.72" width="9.722222222222223" height="9.722222222222223" as="geometry" />
        </mxCell>
        <mxCell id="S6ZuTX8GFXmOVU9LahuD-522" style="edgeStyle=none;shape=connector;rounded=0;orthogonalLoop=1;jettySize=auto;html=1;exitX=0;exitY=1;exitDx=0;exitDy=0;entryX=1;entryY=0;entryDx=0;entryDy=0;strokeColor=default;align=center;verticalAlign=middle;fontFamily=Helvetica;fontSize=11;fontColor=default;labelBackgroundColor=default;startFill=0;endArrow=none;" edge="1" parent="S6ZuTX8GFXmOVU9LahuD-515" source="S6ZuTX8GFXmOVU9LahuD-523" target="S6ZuTX8GFXmOVU9LahuD-519">
          <mxGeometry relative="1" as="geometry" />
        </mxCell>
        <mxCell id="S6ZuTX8GFXmOVU9LahuD-523" value="" style="ellipse;whiteSpace=wrap;html=1;aspect=fixed;movable=1;resizable=1;rotatable=1;deletable=1;editable=1;locked=0;connectable=1;fillColor=#dae8fc;strokeColor=#6c8ebf;" vertex="1" parent="S6ZuTX8GFXmOVU9LahuD-515">
          <mxGeometry x="54.72" y="14.28" width="9.722222222222223" height="9.722222222222223" as="geometry" />
        </mxCell>
        <mxCell id="S6ZuTX8GFXmOVU9LahuD-524" style="edgeStyle=orthogonalEdgeStyle;rounded=0;orthogonalLoop=1;jettySize=auto;html=1;exitX=1;exitY=0.5;exitDx=0;exitDy=0;entryX=0;entryY=0.5;entryDx=0;entryDy=0;startArrow=none;startFill=0;jumpStyle=none;curved=1;endArrow=none;" edge="1" parent="S6ZuTX8GFXmOVU9LahuD-515" source="S6ZuTX8GFXmOVU9LahuD-525" target="S6ZuTX8GFXmOVU9LahuD-517">
          <mxGeometry relative="1" as="geometry" />
        </mxCell>
        <mxCell id="S6ZuTX8GFXmOVU9LahuD-525" value="" style="ellipse;whiteSpace=wrap;html=1;aspect=fixed;movable=1;resizable=1;rotatable=1;deletable=1;editable=1;locked=0;connectable=1;fillColor=#707070;strokeColor=#6c8ebf;" vertex="1" parent="S6ZuTX8GFXmOVU9LahuD-515">
          <mxGeometry x="10" width="9.72" height="9.72" as="geometry" />
        </mxCell>
        <mxCell id="S6ZuTX8GFXmOVU9LahuD-526" value="" style="ellipse;whiteSpace=wrap;html=1;aspect=fixed;movable=1;resizable=1;rotatable=1;deletable=1;editable=1;locked=0;connectable=1;fillColor=#dae8fc;strokeColor=#6c8ebf;" vertex="1" parent="S6ZuTX8GFXmOVU9LahuD-515">
          <mxGeometry x="39.72" y="32.28" width="9.722222222222223" height="9.722222222222223" as="geometry" />
        </mxCell>
        <mxCell id="S6ZuTX8GFXmOVU9LahuD-527" style="edgeStyle=none;shape=connector;rounded=0;orthogonalLoop=1;jettySize=auto;html=1;exitX=1;exitY=0.5;exitDx=0;exitDy=0;entryX=0;entryY=1;entryDx=0;entryDy=0;strokeColor=default;align=center;verticalAlign=middle;fontFamily=Helvetica;fontSize=11;fontColor=default;labelBackgroundColor=default;startFill=0;endArrow=none;" edge="1" parent="S6ZuTX8GFXmOVU9LahuD-515" source="S6ZuTX8GFXmOVU9LahuD-528" target="S6ZuTX8GFXmOVU9LahuD-526">
          <mxGeometry relative="1" as="geometry" />
        </mxCell>
        <mxCell id="S6ZuTX8GFXmOVU9LahuD-528" value="" style="ellipse;whiteSpace=wrap;html=1;aspect=fixed;movable=1;resizable=1;rotatable=1;deletable=1;editable=1;locked=0;connectable=1;fillColor=#dae8fc;strokeColor=#6c8ebf;" vertex="1" parent="S6ZuTX8GFXmOVU9LahuD-515">
          <mxGeometry x="10.000000000000002" y="57.72" width="9.722222222222223" height="9.722222222222223" as="geometry" />
        </mxCell>
        <mxCell id="S6ZuTX8GFXmOVU9LahuD-529" style="rounded=0;orthogonalLoop=1;jettySize=auto;html=1;exitX=1;exitY=1;exitDx=0;exitDy=0;entryX=0;entryY=0.5;entryDx=0;entryDy=0;endArrow=none;startFill=0;" edge="1" parent="S6ZuTX8GFXmOVU9LahuD-515" source="S6ZuTX8GFXmOVU9LahuD-530" target="S6ZuTX8GFXmOVU9LahuD-528">
          <mxGeometry relative="1" as="geometry" />
        </mxCell>
        <mxCell id="S6ZuTX8GFXmOVU9LahuD-530" value="" style="ellipse;whiteSpace=wrap;html=1;aspect=fixed;movable=1;resizable=1;rotatable=1;deletable=1;editable=1;locked=0;connectable=1;fillColor=#dae8fc;strokeColor=#6c8ebf;" vertex="1" parent="S6ZuTX8GFXmOVU9LahuD-515">
          <mxGeometry x="-9.719999999999999" y="48" width="9.722222222222223" height="9.722222222222223" as="geometry" />
        </mxCell>
        <mxCell id="S6ZuTX8GFXmOVU9LahuD-531" style="rounded=0;orthogonalLoop=1;jettySize=auto;html=1;exitX=1;exitY=0;exitDx=0;exitDy=0;entryX=0;entryY=1;entryDx=0;entryDy=0;endArrow=none;startFill=0;" edge="1" parent="S6ZuTX8GFXmOVU9LahuD-513" source="S6ZuTX8GFXmOVU9LahuD-534" target="S6ZuTX8GFXmOVU9LahuD-525">
          <mxGeometry relative="1" as="geometry" />
        </mxCell>
        <mxCell id="S6ZuTX8GFXmOVU9LahuD-532" style="edgeStyle=orthogonalEdgeStyle;rounded=0;orthogonalLoop=1;jettySize=auto;html=1;exitX=0.5;exitY=1;exitDx=0;exitDy=0;entryX=0.5;entryY=0;entryDx=0;entryDy=0;endArrow=none;startFill=0;" edge="1" parent="S6ZuTX8GFXmOVU9LahuD-513" source="S6ZuTX8GFXmOVU9LahuD-534" target="S6ZuTX8GFXmOVU9LahuD-530">
          <mxGeometry relative="1" as="geometry" />
        </mxCell>
        <mxCell id="S6ZuTX8GFXmOVU9LahuD-533" style="edgeStyle=none;shape=connector;rounded=0;orthogonalLoop=1;jettySize=auto;html=1;exitX=1;exitY=0.5;exitDx=0;exitDy=0;entryX=0;entryY=0.5;entryDx=0;entryDy=0;strokeColor=default;align=center;verticalAlign=middle;fontFamily=Helvetica;fontSize=11;fontColor=default;labelBackgroundColor=default;startFill=0;endArrow=none;" edge="1" parent="S6ZuTX8GFXmOVU9LahuD-513" source="S6ZuTX8GFXmOVU9LahuD-534" target="S6ZuTX8GFXmOVU9LahuD-519">
          <mxGeometry relative="1" as="geometry" />
        </mxCell>
        <mxCell id="S6ZuTX8GFXmOVU9LahuD-534" value="" style="ellipse;whiteSpace=wrap;html=1;aspect=fixed;movable=1;resizable=1;rotatable=1;deletable=1;editable=1;locked=0;connectable=1;fillColor=#dae8fc;strokeColor=#6c8ebf;" vertex="1" parent="S6ZuTX8GFXmOVU9LahuD-513">
          <mxGeometry y="24.419999999999987" width="9.722222222222223" height="9.722222222222223" as="geometry" />
        </mxCell>
        <mxCell id="S6ZuTX8GFXmOVU9LahuD-535" style="edgeStyle=none;shape=connector;rounded=0;orthogonalLoop=1;jettySize=auto;html=1;exitX=0.5;exitY=0;exitDx=0;exitDy=0;entryX=0.5;entryY=1;entryDx=0;entryDy=0;strokeColor=default;align=center;verticalAlign=middle;fontFamily=Helvetica;fontSize=11;fontColor=default;labelBackgroundColor=default;startFill=0;endArrow=none;" edge="1" parent="S6ZuTX8GFXmOVU9LahuD-513" source="S6ZuTX8GFXmOVU9LahuD-536" target="S6ZuTX8GFXmOVU9LahuD-523">
          <mxGeometry relative="1" as="geometry" />
        </mxCell>
        <mxCell id="S6ZuTX8GFXmOVU9LahuD-536" value="" style="ellipse;whiteSpace=wrap;html=1;aspect=fixed;movable=1;resizable=1;rotatable=1;deletable=1;editable=1;locked=0;connectable=1;fillColor=#dae8fc;strokeColor=#6c8ebf;" vertex="1" parent="S6ZuTX8GFXmOVU9LahuD-513">
          <mxGeometry x="65" y="40.140000000000015" width="9.722222222222223" height="9.722222222222223" as="geometry" />
        </mxCell>
        <mxCell id="S6ZuTX8GFXmOVU9LahuD-537" style="edgeStyle=none;shape=connector;rounded=0;orthogonalLoop=1;jettySize=auto;html=1;exitX=1;exitY=0.5;exitDx=0;exitDy=0;entryX=0;entryY=1;entryDx=0;entryDy=0;strokeColor=default;align=center;verticalAlign=middle;fontFamily=Helvetica;fontSize=11;fontColor=default;labelBackgroundColor=default;startFill=0;endArrow=none;" edge="1" parent="S6ZuTX8GFXmOVU9LahuD-513" source="S6ZuTX8GFXmOVU9LahuD-521" target="S6ZuTX8GFXmOVU9LahuD-536">
          <mxGeometry relative="1" as="geometry" />
        </mxCell>
        <mxCell id="S6ZuTX8GFXmOVU9LahuD-538" style="edgeStyle=none;shape=connector;rounded=0;orthogonalLoop=1;jettySize=auto;html=1;exitX=1;exitY=0.5;exitDx=0;exitDy=0;entryX=0;entryY=0;entryDx=0;entryDy=0;strokeColor=default;align=center;verticalAlign=middle;fontFamily=Helvetica;fontSize=11;fontColor=default;labelBackgroundColor=default;startFill=0;endArrow=none;" edge="1" parent="S6ZuTX8GFXmOVU9LahuD-513" source="S6ZuTX8GFXmOVU9LahuD-526" target="S6ZuTX8GFXmOVU9LahuD-536">
          <mxGeometry relative="1" as="geometry" />
        </mxCell>
        <mxCell id="S6ZuTX8GFXmOVU9LahuD-637" value="&lt;div style=&quot;text-align: center;&quot;&gt;&lt;font face=&quot;Times New Roman&quot;&gt;&lt;span style=&quot;font-size: 14px; text-wrap: nowrap;&quot;&gt;&lt;b&gt;...&lt;/b&gt;&lt;/span&gt;&lt;/font&gt;&lt;/div&gt;" style="text;whiteSpace=wrap;html=1;fontFamily=Helvetica;fontSize=11;fontColor=default;labelBackgroundColor=default;rotation=20;" vertex="1" parent="S6ZuTX8GFXmOVU9LahuD-513">
          <mxGeometry x="0.0044444444443025866" y="83.00333333333327" width="64" height="35" as="geometry" />
        </mxCell>
        <mxCell id="S6ZuTX8GFXmOVU9LahuD-539" value="" style="group" vertex="1" connectable="0" parent="1">
          <mxGeometry x="596" y="205" width="78.69" height="101.00333333333327" as="geometry" />
        </mxCell>
        <mxCell id="S6ZuTX8GFXmOVU9LahuD-540" value="" style="shape=parallelogram;perimeter=parallelogramPerimeter;whiteSpace=wrap;html=1;fixedSize=1;direction=south;rotation=75;fillColor=#FFE599;strokeColor=#36393d;" vertex="1" parent="S6ZuTX8GFXmOVU9LahuD-539">
          <mxGeometry x="-3.25" y="-20.22" width="74.72" height="107.48" as="geometry" />
        </mxCell>
        <mxCell id="S6ZuTX8GFXmOVU9LahuD-541" value="" style="group;movable=0;resizable=0;rotatable=0;deletable=0;editable=0;locked=1;connectable=0;" vertex="1" connectable="0" parent="S6ZuTX8GFXmOVU9LahuD-539">
          <mxGeometry x="9.719999999999999" width="68.97" height="94.96000000000001" as="geometry" />
        </mxCell>
        <mxCell id="S6ZuTX8GFXmOVU9LahuD-542" style="edgeStyle=none;shape=connector;rounded=0;orthogonalLoop=1;jettySize=auto;html=1;exitX=1;exitY=1;exitDx=0;exitDy=0;entryX=0;entryY=0;entryDx=0;entryDy=0;strokeColor=default;align=center;verticalAlign=middle;fontFamily=Helvetica;fontSize=11;fontColor=default;labelBackgroundColor=default;startFill=0;endArrow=none;" edge="1" parent="S6ZuTX8GFXmOVU9LahuD-541" source="S6ZuTX8GFXmOVU9LahuD-543" target="S6ZuTX8GFXmOVU9LahuD-549">
          <mxGeometry relative="1" as="geometry" />
        </mxCell>
        <mxCell id="S6ZuTX8GFXmOVU9LahuD-543" value="" style="ellipse;whiteSpace=wrap;html=1;aspect=fixed;movable=1;resizable=1;rotatable=1;deletable=1;editable=1;locked=0;connectable=1;fillColor=#dae8fc;strokeColor=#6c8ebf;" vertex="1" parent="S6ZuTX8GFXmOVU9LahuD-541">
          <mxGeometry x="39.72" width="9.722222222222223" height="9.722222222222223" as="geometry" />
        </mxCell>
        <mxCell id="S6ZuTX8GFXmOVU9LahuD-544" style="edgeStyle=none;shape=connector;rounded=0;orthogonalLoop=1;jettySize=auto;html=1;exitX=0;exitY=1;exitDx=0;exitDy=0;entryX=1;entryY=0;entryDx=0;entryDy=0;strokeColor=default;align=center;verticalAlign=middle;fontFamily=Helvetica;fontSize=11;fontColor=default;labelBackgroundColor=default;startFill=0;endArrow=none;" edge="1" parent="S6ZuTX8GFXmOVU9LahuD-541" source="S6ZuTX8GFXmOVU9LahuD-545" target="S6ZuTX8GFXmOVU9LahuD-554">
          <mxGeometry relative="1" as="geometry" />
        </mxCell>
        <mxCell id="S6ZuTX8GFXmOVU9LahuD-545" value="" style="ellipse;whiteSpace=wrap;html=1;aspect=fixed;movable=1;resizable=1;rotatable=1;deletable=1;editable=1;locked=0;connectable=1;fillColor=#dae8fc;strokeColor=#6c8ebf;" vertex="1" parent="S6ZuTX8GFXmOVU9LahuD-541">
          <mxGeometry x="20.280000000000005" y="24" width="9.722222222222223" height="9.722222222222223" as="geometry" />
        </mxCell>
        <mxCell id="S6ZuTX8GFXmOVU9LahuD-546" style="edgeStyle=none;shape=connector;rounded=0;orthogonalLoop=1;jettySize=auto;html=1;exitX=1;exitY=0;exitDx=0;exitDy=0;entryX=0.5;entryY=1;entryDx=0;entryDy=0;strokeColor=default;align=center;verticalAlign=middle;fontFamily=Helvetica;fontSize=11;fontColor=default;labelBackgroundColor=default;startFill=0;endArrow=none;" edge="1" parent="S6ZuTX8GFXmOVU9LahuD-541" source="S6ZuTX8GFXmOVU9LahuD-547" target="S6ZuTX8GFXmOVU9LahuD-552">
          <mxGeometry relative="1" as="geometry" />
        </mxCell>
        <mxCell id="S6ZuTX8GFXmOVU9LahuD-547" value="" style="ellipse;whiteSpace=wrap;html=1;aspect=fixed;movable=1;resizable=1;rotatable=1;deletable=1;editable=1;locked=0;connectable=1;fillColor=#dae8fc;strokeColor=#6c8ebf;" vertex="1" parent="S6ZuTX8GFXmOVU9LahuD-541">
          <mxGeometry x="30" y="57.72" width="9.722222222222223" height="9.722222222222223" as="geometry" />
        </mxCell>
        <mxCell id="S6ZuTX8GFXmOVU9LahuD-548" style="edgeStyle=none;shape=connector;rounded=0;orthogonalLoop=1;jettySize=auto;html=1;exitX=0;exitY=1;exitDx=0;exitDy=0;entryX=1;entryY=0;entryDx=0;entryDy=0;strokeColor=default;align=center;verticalAlign=middle;fontFamily=Helvetica;fontSize=11;fontColor=default;labelBackgroundColor=default;startFill=0;endArrow=none;" edge="1" parent="S6ZuTX8GFXmOVU9LahuD-541" source="S6ZuTX8GFXmOVU9LahuD-549" target="S6ZuTX8GFXmOVU9LahuD-545">
          <mxGeometry relative="1" as="geometry" />
        </mxCell>
        <mxCell id="S6ZuTX8GFXmOVU9LahuD-549" value="" style="ellipse;whiteSpace=wrap;html=1;aspect=fixed;movable=1;resizable=1;rotatable=1;deletable=1;editable=1;locked=0;connectable=1;fillColor=#dae8fc;strokeColor=#6c8ebf;" vertex="1" parent="S6ZuTX8GFXmOVU9LahuD-541">
          <mxGeometry x="54.72" y="14.28" width="9.722222222222223" height="9.722222222222223" as="geometry" />
        </mxCell>
        <mxCell id="S6ZuTX8GFXmOVU9LahuD-550" style="edgeStyle=orthogonalEdgeStyle;rounded=0;orthogonalLoop=1;jettySize=auto;html=1;exitX=1;exitY=0.5;exitDx=0;exitDy=0;entryX=0;entryY=0.5;entryDx=0;entryDy=0;startArrow=none;startFill=0;jumpStyle=none;curved=1;endArrow=none;" edge="1" parent="S6ZuTX8GFXmOVU9LahuD-541" source="S6ZuTX8GFXmOVU9LahuD-551" target="S6ZuTX8GFXmOVU9LahuD-543">
          <mxGeometry relative="1" as="geometry" />
        </mxCell>
        <mxCell id="S6ZuTX8GFXmOVU9LahuD-551" value="" style="ellipse;whiteSpace=wrap;html=1;aspect=fixed;movable=1;resizable=1;rotatable=1;deletable=1;editable=1;locked=0;connectable=1;fillColor=#dae8fc;strokeColor=#6c8ebf;" vertex="1" parent="S6ZuTX8GFXmOVU9LahuD-541">
          <mxGeometry x="10" width="9.72" height="9.72" as="geometry" />
        </mxCell>
        <mxCell id="S6ZuTX8GFXmOVU9LahuD-552" value="" style="ellipse;whiteSpace=wrap;html=1;aspect=fixed;movable=1;resizable=1;rotatable=1;deletable=1;editable=1;locked=0;connectable=1;fillColor=#dae8fc;strokeColor=#6c8ebf;" vertex="1" parent="S6ZuTX8GFXmOVU9LahuD-541">
          <mxGeometry x="39.72" y="32.28" width="9.722222222222223" height="9.722222222222223" as="geometry" />
        </mxCell>
        <mxCell id="S6ZuTX8GFXmOVU9LahuD-553" style="edgeStyle=none;shape=connector;rounded=0;orthogonalLoop=1;jettySize=auto;html=1;exitX=1;exitY=0.5;exitDx=0;exitDy=0;entryX=0;entryY=1;entryDx=0;entryDy=0;strokeColor=default;align=center;verticalAlign=middle;fontFamily=Helvetica;fontSize=11;fontColor=default;labelBackgroundColor=default;startFill=0;endArrow=none;" edge="1" parent="S6ZuTX8GFXmOVU9LahuD-541" source="S6ZuTX8GFXmOVU9LahuD-554" target="S6ZuTX8GFXmOVU9LahuD-552">
          <mxGeometry relative="1" as="geometry" />
        </mxCell>
        <mxCell id="S6ZuTX8GFXmOVU9LahuD-554" value="" style="ellipse;whiteSpace=wrap;html=1;aspect=fixed;movable=1;resizable=1;rotatable=1;deletable=1;editable=1;locked=0;connectable=1;fillColor=#dae8fc;strokeColor=#6c8ebf;" vertex="1" parent="S6ZuTX8GFXmOVU9LahuD-541">
          <mxGeometry x="10.000000000000002" y="57.72" width="9.722222222222223" height="9.722222222222223" as="geometry" />
        </mxCell>
        <mxCell id="S6ZuTX8GFXmOVU9LahuD-555" style="rounded=0;orthogonalLoop=1;jettySize=auto;html=1;exitX=1;exitY=1;exitDx=0;exitDy=0;entryX=0;entryY=0.5;entryDx=0;entryDy=0;endArrow=none;startFill=0;" edge="1" parent="S6ZuTX8GFXmOVU9LahuD-541" source="S6ZuTX8GFXmOVU9LahuD-556" target="S6ZuTX8GFXmOVU9LahuD-554">
          <mxGeometry relative="1" as="geometry" />
        </mxCell>
        <mxCell id="S6ZuTX8GFXmOVU9LahuD-556" value="" style="ellipse;whiteSpace=wrap;html=1;aspect=fixed;movable=1;resizable=1;rotatable=1;deletable=1;editable=1;locked=0;connectable=1;fillColor=#707070;strokeColor=#6c8ebf;" vertex="1" parent="S6ZuTX8GFXmOVU9LahuD-541">
          <mxGeometry x="-9.719999999999999" y="48" width="9.722222222222223" height="9.722222222222223" as="geometry" />
        </mxCell>
        <mxCell id="S6ZuTX8GFXmOVU9LahuD-557" style="rounded=0;orthogonalLoop=1;jettySize=auto;html=1;exitX=1;exitY=0;exitDx=0;exitDy=0;entryX=0;entryY=1;entryDx=0;entryDy=0;endArrow=none;startFill=0;" edge="1" parent="S6ZuTX8GFXmOVU9LahuD-539" source="S6ZuTX8GFXmOVU9LahuD-560" target="S6ZuTX8GFXmOVU9LahuD-551">
          <mxGeometry relative="1" as="geometry" />
        </mxCell>
        <mxCell id="S6ZuTX8GFXmOVU9LahuD-558" style="edgeStyle=orthogonalEdgeStyle;rounded=0;orthogonalLoop=1;jettySize=auto;html=1;exitX=0.5;exitY=1;exitDx=0;exitDy=0;entryX=0.5;entryY=0;entryDx=0;entryDy=0;endArrow=none;startFill=0;" edge="1" parent="S6ZuTX8GFXmOVU9LahuD-539" source="S6ZuTX8GFXmOVU9LahuD-560" target="S6ZuTX8GFXmOVU9LahuD-556">
          <mxGeometry relative="1" as="geometry" />
        </mxCell>
        <mxCell id="S6ZuTX8GFXmOVU9LahuD-559" style="edgeStyle=none;shape=connector;rounded=0;orthogonalLoop=1;jettySize=auto;html=1;exitX=1;exitY=0.5;exitDx=0;exitDy=0;entryX=0;entryY=0.5;entryDx=0;entryDy=0;strokeColor=default;align=center;verticalAlign=middle;fontFamily=Helvetica;fontSize=11;fontColor=default;labelBackgroundColor=default;startFill=0;endArrow=none;" edge="1" parent="S6ZuTX8GFXmOVU9LahuD-539" source="S6ZuTX8GFXmOVU9LahuD-560" target="S6ZuTX8GFXmOVU9LahuD-545">
          <mxGeometry relative="1" as="geometry" />
        </mxCell>
        <mxCell id="S6ZuTX8GFXmOVU9LahuD-560" value="" style="ellipse;whiteSpace=wrap;html=1;aspect=fixed;movable=1;resizable=1;rotatable=1;deletable=1;editable=1;locked=0;connectable=1;fillColor=#dae8fc;strokeColor=#6c8ebf;" vertex="1" parent="S6ZuTX8GFXmOVU9LahuD-539">
          <mxGeometry y="24.419999999999987" width="9.722222222222223" height="9.722222222222223" as="geometry" />
        </mxCell>
        <mxCell id="S6ZuTX8GFXmOVU9LahuD-561" style="edgeStyle=none;shape=connector;rounded=0;orthogonalLoop=1;jettySize=auto;html=1;exitX=0.5;exitY=0;exitDx=0;exitDy=0;entryX=0.5;entryY=1;entryDx=0;entryDy=0;strokeColor=default;align=center;verticalAlign=middle;fontFamily=Helvetica;fontSize=11;fontColor=default;labelBackgroundColor=default;startFill=0;endArrow=none;" edge="1" parent="S6ZuTX8GFXmOVU9LahuD-539" source="S6ZuTX8GFXmOVU9LahuD-562" target="S6ZuTX8GFXmOVU9LahuD-549">
          <mxGeometry relative="1" as="geometry" />
        </mxCell>
        <mxCell id="S6ZuTX8GFXmOVU9LahuD-562" value="" style="ellipse;whiteSpace=wrap;html=1;aspect=fixed;movable=1;resizable=1;rotatable=1;deletable=1;editable=1;locked=0;connectable=1;fillColor=#dae8fc;strokeColor=#6c8ebf;" vertex="1" parent="S6ZuTX8GFXmOVU9LahuD-539">
          <mxGeometry x="65" y="40.140000000000015" width="9.722222222222223" height="9.722222222222223" as="geometry" />
        </mxCell>
        <mxCell id="S6ZuTX8GFXmOVU9LahuD-563" style="edgeStyle=none;shape=connector;rounded=0;orthogonalLoop=1;jettySize=auto;html=1;exitX=1;exitY=0.5;exitDx=0;exitDy=0;entryX=0;entryY=1;entryDx=0;entryDy=0;strokeColor=default;align=center;verticalAlign=middle;fontFamily=Helvetica;fontSize=11;fontColor=default;labelBackgroundColor=default;startFill=0;endArrow=none;" edge="1" parent="S6ZuTX8GFXmOVU9LahuD-539" source="S6ZuTX8GFXmOVU9LahuD-547" target="S6ZuTX8GFXmOVU9LahuD-562">
          <mxGeometry relative="1" as="geometry" />
        </mxCell>
        <mxCell id="S6ZuTX8GFXmOVU9LahuD-564" style="edgeStyle=none;shape=connector;rounded=0;orthogonalLoop=1;jettySize=auto;html=1;exitX=1;exitY=0.5;exitDx=0;exitDy=0;entryX=0;entryY=0;entryDx=0;entryDy=0;strokeColor=default;align=center;verticalAlign=middle;fontFamily=Helvetica;fontSize=11;fontColor=default;labelBackgroundColor=default;startFill=0;endArrow=none;" edge="1" parent="S6ZuTX8GFXmOVU9LahuD-539" source="S6ZuTX8GFXmOVU9LahuD-552" target="S6ZuTX8GFXmOVU9LahuD-562">
          <mxGeometry relative="1" as="geometry" />
        </mxCell>
        <mxCell id="S6ZuTX8GFXmOVU9LahuD-565" value="" style="group" vertex="1" connectable="0" parent="1">
          <mxGeometry x="616" y="213" width="135.47444444444432" height="94.96333333333325" as="geometry" />
        </mxCell>
        <mxCell id="S6ZuTX8GFXmOVU9LahuD-566" value="" style="shape=parallelogram;perimeter=parallelogramPerimeter;whiteSpace=wrap;html=1;fixedSize=1;direction=south;rotation=75;fillColor=#FFF2CC;strokeColor=#36393d;" vertex="1" parent="S6ZuTX8GFXmOVU9LahuD-565">
          <mxGeometry x="-3.25" y="-20.22" width="74.72" height="107.48" as="geometry" />
        </mxCell>
        <mxCell id="S6ZuTX8GFXmOVU9LahuD-567" value="" style="group;movable=0;resizable=0;rotatable=0;deletable=0;editable=0;locked=1;connectable=0;" vertex="1" connectable="0" parent="S6ZuTX8GFXmOVU9LahuD-565">
          <mxGeometry x="9.719999999999999" width="68.97" height="94.96000000000001" as="geometry" />
        </mxCell>
        <mxCell id="S6ZuTX8GFXmOVU9LahuD-568" style="edgeStyle=none;shape=connector;rounded=0;orthogonalLoop=1;jettySize=auto;html=1;exitX=1;exitY=1;exitDx=0;exitDy=0;entryX=0;entryY=0;entryDx=0;entryDy=0;strokeColor=default;align=center;verticalAlign=middle;fontFamily=Helvetica;fontSize=11;fontColor=default;labelBackgroundColor=default;startFill=0;endArrow=none;" edge="1" parent="S6ZuTX8GFXmOVU9LahuD-567" source="S6ZuTX8GFXmOVU9LahuD-569" target="S6ZuTX8GFXmOVU9LahuD-575">
          <mxGeometry relative="1" as="geometry" />
        </mxCell>
        <mxCell id="S6ZuTX8GFXmOVU9LahuD-569" value="" style="ellipse;whiteSpace=wrap;html=1;aspect=fixed;movable=1;resizable=1;rotatable=1;deletable=1;editable=1;locked=0;connectable=1;fillColor=#dae8fc;strokeColor=#6c8ebf;" vertex="1" parent="S6ZuTX8GFXmOVU9LahuD-567">
          <mxGeometry x="39.72" width="9.722222222222223" height="9.722222222222223" as="geometry" />
        </mxCell>
        <mxCell id="S6ZuTX8GFXmOVU9LahuD-570" style="edgeStyle=none;shape=connector;rounded=0;orthogonalLoop=1;jettySize=auto;html=1;exitX=0;exitY=1;exitDx=0;exitDy=0;entryX=1;entryY=0;entryDx=0;entryDy=0;strokeColor=default;align=center;verticalAlign=middle;fontFamily=Helvetica;fontSize=11;fontColor=default;labelBackgroundColor=default;startFill=0;endArrow=none;" edge="1" parent="S6ZuTX8GFXmOVU9LahuD-567" source="S6ZuTX8GFXmOVU9LahuD-571" target="S6ZuTX8GFXmOVU9LahuD-580">
          <mxGeometry relative="1" as="geometry" />
        </mxCell>
        <mxCell id="S6ZuTX8GFXmOVU9LahuD-571" value="" style="ellipse;whiteSpace=wrap;html=1;aspect=fixed;movable=1;resizable=1;rotatable=1;deletable=1;editable=1;locked=0;connectable=1;fillColor=#dae8fc;strokeColor=#6c8ebf;" vertex="1" parent="S6ZuTX8GFXmOVU9LahuD-567">
          <mxGeometry x="20.280000000000005" y="24" width="9.722222222222223" height="9.722222222222223" as="geometry" />
        </mxCell>
        <mxCell id="S6ZuTX8GFXmOVU9LahuD-572" style="edgeStyle=none;shape=connector;rounded=0;orthogonalLoop=1;jettySize=auto;html=1;exitX=1;exitY=0;exitDx=0;exitDy=0;entryX=0.5;entryY=1;entryDx=0;entryDy=0;strokeColor=default;align=center;verticalAlign=middle;fontFamily=Helvetica;fontSize=11;fontColor=default;labelBackgroundColor=default;startFill=0;endArrow=none;" edge="1" parent="S6ZuTX8GFXmOVU9LahuD-567" source="S6ZuTX8GFXmOVU9LahuD-573" target="S6ZuTX8GFXmOVU9LahuD-578">
          <mxGeometry relative="1" as="geometry" />
        </mxCell>
        <mxCell id="S6ZuTX8GFXmOVU9LahuD-573" value="" style="ellipse;whiteSpace=wrap;html=1;aspect=fixed;movable=1;resizable=1;rotatable=1;deletable=1;editable=1;locked=0;connectable=1;fillColor=#dae8fc;strokeColor=#6c8ebf;" vertex="1" parent="S6ZuTX8GFXmOVU9LahuD-567">
          <mxGeometry x="30" y="57.72" width="9.722222222222223" height="9.722222222222223" as="geometry" />
        </mxCell>
        <mxCell id="S6ZuTX8GFXmOVU9LahuD-574" style="edgeStyle=none;shape=connector;rounded=0;orthogonalLoop=1;jettySize=auto;html=1;exitX=0;exitY=1;exitDx=0;exitDy=0;entryX=1;entryY=0;entryDx=0;entryDy=0;strokeColor=default;align=center;verticalAlign=middle;fontFamily=Helvetica;fontSize=11;fontColor=default;labelBackgroundColor=default;startFill=0;endArrow=none;" edge="1" parent="S6ZuTX8GFXmOVU9LahuD-567" source="S6ZuTX8GFXmOVU9LahuD-575" target="S6ZuTX8GFXmOVU9LahuD-571">
          <mxGeometry relative="1" as="geometry" />
        </mxCell>
        <mxCell id="S6ZuTX8GFXmOVU9LahuD-575" value="" style="ellipse;whiteSpace=wrap;html=1;aspect=fixed;movable=1;resizable=1;rotatable=1;deletable=1;editable=1;locked=0;connectable=1;fillColor=#dae8fc;strokeColor=#6c8ebf;" vertex="1" parent="S6ZuTX8GFXmOVU9LahuD-567">
          <mxGeometry x="54.72" y="14.28" width="9.722222222222223" height="9.722222222222223" as="geometry" />
        </mxCell>
        <mxCell id="S6ZuTX8GFXmOVU9LahuD-576" style="edgeStyle=orthogonalEdgeStyle;rounded=0;orthogonalLoop=1;jettySize=auto;html=1;exitX=1;exitY=0.5;exitDx=0;exitDy=0;entryX=0;entryY=0.5;entryDx=0;entryDy=0;startArrow=none;startFill=0;jumpStyle=none;curved=1;endArrow=none;" edge="1" parent="S6ZuTX8GFXmOVU9LahuD-567" source="S6ZuTX8GFXmOVU9LahuD-577" target="S6ZuTX8GFXmOVU9LahuD-569">
          <mxGeometry relative="1" as="geometry" />
        </mxCell>
        <mxCell id="S6ZuTX8GFXmOVU9LahuD-577" value="" style="ellipse;whiteSpace=wrap;html=1;aspect=fixed;movable=1;resizable=1;rotatable=1;deletable=1;editable=1;locked=0;connectable=1;fillColor=#dae8fc;strokeColor=#6c8ebf;" vertex="1" parent="S6ZuTX8GFXmOVU9LahuD-567">
          <mxGeometry x="10" width="9.72" height="9.72" as="geometry" />
        </mxCell>
        <mxCell id="S6ZuTX8GFXmOVU9LahuD-578" value="" style="ellipse;whiteSpace=wrap;html=1;aspect=fixed;movable=1;resizable=1;rotatable=1;deletable=1;editable=1;locked=0;connectable=1;fillColor=#dae8fc;strokeColor=#6c8ebf;" vertex="1" parent="S6ZuTX8GFXmOVU9LahuD-567">
          <mxGeometry x="39.72" y="32.28" width="9.722222222222223" height="9.722222222222223" as="geometry" />
        </mxCell>
        <mxCell id="S6ZuTX8GFXmOVU9LahuD-579" style="edgeStyle=none;shape=connector;rounded=0;orthogonalLoop=1;jettySize=auto;html=1;exitX=1;exitY=0.5;exitDx=0;exitDy=0;entryX=0;entryY=1;entryDx=0;entryDy=0;strokeColor=default;align=center;verticalAlign=middle;fontFamily=Helvetica;fontSize=11;fontColor=default;labelBackgroundColor=default;startFill=0;endArrow=none;" edge="1" parent="S6ZuTX8GFXmOVU9LahuD-567" source="S6ZuTX8GFXmOVU9LahuD-580" target="S6ZuTX8GFXmOVU9LahuD-578">
          <mxGeometry relative="1" as="geometry" />
        </mxCell>
        <mxCell id="S6ZuTX8GFXmOVU9LahuD-580" value="" style="ellipse;whiteSpace=wrap;html=1;aspect=fixed;movable=1;resizable=1;rotatable=1;deletable=1;editable=1;locked=0;connectable=1;fillColor=#dae8fc;strokeColor=#6c8ebf;" vertex="1" parent="S6ZuTX8GFXmOVU9LahuD-567">
          <mxGeometry x="10.000000000000002" y="57.72" width="9.722222222222223" height="9.722222222222223" as="geometry" />
        </mxCell>
        <mxCell id="S6ZuTX8GFXmOVU9LahuD-581" style="rounded=0;orthogonalLoop=1;jettySize=auto;html=1;exitX=1;exitY=1;exitDx=0;exitDy=0;entryX=0;entryY=0.5;entryDx=0;entryDy=0;endArrow=none;startFill=0;" edge="1" parent="S6ZuTX8GFXmOVU9LahuD-567" source="S6ZuTX8GFXmOVU9LahuD-582" target="S6ZuTX8GFXmOVU9LahuD-580">
          <mxGeometry relative="1" as="geometry" />
        </mxCell>
        <mxCell id="S6ZuTX8GFXmOVU9LahuD-582" value="" style="ellipse;whiteSpace=wrap;html=1;aspect=fixed;movable=1;resizable=1;rotatable=1;deletable=1;editable=1;locked=0;connectable=1;fillColor=#dae8fc;strokeColor=#6c8ebf;" vertex="1" parent="S6ZuTX8GFXmOVU9LahuD-567">
          <mxGeometry x="-9.719999999999999" y="48" width="9.722222222222223" height="9.722222222222223" as="geometry" />
        </mxCell>
        <mxCell id="S6ZuTX8GFXmOVU9LahuD-583" style="rounded=0;orthogonalLoop=1;jettySize=auto;html=1;exitX=1;exitY=0;exitDx=0;exitDy=0;entryX=0;entryY=1;entryDx=0;entryDy=0;endArrow=none;startFill=0;" edge="1" parent="S6ZuTX8GFXmOVU9LahuD-565" source="S6ZuTX8GFXmOVU9LahuD-586" target="S6ZuTX8GFXmOVU9LahuD-577">
          <mxGeometry relative="1" as="geometry" />
        </mxCell>
        <mxCell id="S6ZuTX8GFXmOVU9LahuD-584" style="edgeStyle=orthogonalEdgeStyle;rounded=0;orthogonalLoop=1;jettySize=auto;html=1;exitX=0.5;exitY=1;exitDx=0;exitDy=0;entryX=0.5;entryY=0;entryDx=0;entryDy=0;endArrow=none;startFill=0;" edge="1" parent="S6ZuTX8GFXmOVU9LahuD-565" source="S6ZuTX8GFXmOVU9LahuD-586" target="S6ZuTX8GFXmOVU9LahuD-582">
          <mxGeometry relative="1" as="geometry" />
        </mxCell>
        <mxCell id="S6ZuTX8GFXmOVU9LahuD-585" style="edgeStyle=none;shape=connector;rounded=0;orthogonalLoop=1;jettySize=auto;html=1;exitX=1;exitY=0.5;exitDx=0;exitDy=0;entryX=0;entryY=0.5;entryDx=0;entryDy=0;strokeColor=default;align=center;verticalAlign=middle;fontFamily=Helvetica;fontSize=11;fontColor=default;labelBackgroundColor=default;startFill=0;endArrow=none;" edge="1" parent="S6ZuTX8GFXmOVU9LahuD-565" source="S6ZuTX8GFXmOVU9LahuD-586" target="S6ZuTX8GFXmOVU9LahuD-571">
          <mxGeometry relative="1" as="geometry" />
        </mxCell>
        <mxCell id="S6ZuTX8GFXmOVU9LahuD-586" value="" style="ellipse;whiteSpace=wrap;html=1;aspect=fixed;movable=1;resizable=1;rotatable=1;deletable=1;editable=1;locked=0;connectable=1;fillColor=#707070;strokeColor=#6c8ebf;" vertex="1" parent="S6ZuTX8GFXmOVU9LahuD-565">
          <mxGeometry y="24.419999999999987" width="9.722222222222223" height="9.722222222222223" as="geometry" />
        </mxCell>
        <mxCell id="S6ZuTX8GFXmOVU9LahuD-587" style="edgeStyle=none;shape=connector;rounded=0;orthogonalLoop=1;jettySize=auto;html=1;exitX=0.5;exitY=0;exitDx=0;exitDy=0;entryX=0.5;entryY=1;entryDx=0;entryDy=0;strokeColor=default;align=center;verticalAlign=middle;fontFamily=Helvetica;fontSize=11;fontColor=default;labelBackgroundColor=default;startFill=0;endArrow=none;" edge="1" parent="S6ZuTX8GFXmOVU9LahuD-565" source="S6ZuTX8GFXmOVU9LahuD-588" target="S6ZuTX8GFXmOVU9LahuD-575">
          <mxGeometry relative="1" as="geometry" />
        </mxCell>
        <mxCell id="S6ZuTX8GFXmOVU9LahuD-588" value="" style="ellipse;whiteSpace=wrap;html=1;aspect=fixed;movable=1;resizable=1;rotatable=1;deletable=1;editable=1;locked=0;connectable=1;fillColor=#dae8fc;strokeColor=#6c8ebf;" vertex="1" parent="S6ZuTX8GFXmOVU9LahuD-565">
          <mxGeometry x="65" y="40.140000000000015" width="9.722222222222223" height="9.722222222222223" as="geometry" />
        </mxCell>
        <mxCell id="S6ZuTX8GFXmOVU9LahuD-589" style="edgeStyle=none;shape=connector;rounded=0;orthogonalLoop=1;jettySize=auto;html=1;exitX=1;exitY=0.5;exitDx=0;exitDy=0;entryX=0;entryY=1;entryDx=0;entryDy=0;strokeColor=default;align=center;verticalAlign=middle;fontFamily=Helvetica;fontSize=11;fontColor=default;labelBackgroundColor=default;startFill=0;endArrow=none;" edge="1" parent="S6ZuTX8GFXmOVU9LahuD-565" source="S6ZuTX8GFXmOVU9LahuD-573" target="S6ZuTX8GFXmOVU9LahuD-588">
          <mxGeometry relative="1" as="geometry" />
        </mxCell>
        <mxCell id="S6ZuTX8GFXmOVU9LahuD-590" style="edgeStyle=none;shape=connector;rounded=0;orthogonalLoop=1;jettySize=auto;html=1;exitX=1;exitY=0.5;exitDx=0;exitDy=0;entryX=0;entryY=0;entryDx=0;entryDy=0;strokeColor=default;align=center;verticalAlign=middle;fontFamily=Helvetica;fontSize=11;fontColor=default;labelBackgroundColor=default;startFill=0;endArrow=none;" edge="1" parent="S6ZuTX8GFXmOVU9LahuD-565" source="S6ZuTX8GFXmOVU9LahuD-578" target="S6ZuTX8GFXmOVU9LahuD-588">
          <mxGeometry relative="1" as="geometry" />
        </mxCell>
        <mxCell id="S6ZuTX8GFXmOVU9LahuD-753" value="&lt;b style=&quot;forced-color-adjust: none; color: rgb(0, 0, 0); font-family: &amp;quot;Times New Roman&amp;quot;; font-size: 10px; font-style: normal; font-variant-ligatures: normal; font-variant-caps: normal; letter-spacing: normal; orphans: 2; text-align: center; text-indent: 0px; text-transform: none; widows: 2; word-spacing: 0px; -webkit-text-stroke-width: 0px; white-space: nowrap; background-color: rgb(255, 255, 255); text-decoration-thickness: initial; text-decoration-style: initial; text-decoration-color: initial;&quot;&gt;ReLU&lt;/b&gt;" style="text;whiteSpace=wrap;html=1;fontFamily=Helvetica;fontSize=11;fontColor=default;labelBackgroundColor=default;rotation=20;" vertex="1" parent="S6ZuTX8GFXmOVU9LahuD-565">
          <mxGeometry x="66.47444444444432" y="64.96333333333325" width="64" height="35" as="geometry" />
        </mxCell>
        <mxCell id="S6ZuTX8GFXmOVU9LahuD-597" value="" style="shape=parallelogram;perimeter=parallelogramPerimeter;whiteSpace=wrap;html=1;fixedSize=1;fontFamily=Helvetica;fontSize=11;labelBackgroundColor=default;rotation=-20;rounded=1;fillColor=#e1d5e7;strokeColor=#9673a6;" vertex="1" parent="1">
          <mxGeometry x="700" y="260" width="120" height="60" as="geometry" />
        </mxCell>
        <mxCell id="S6ZuTX8GFXmOVU9LahuD-612" value="" style="group;rounded=0;" vertex="1" connectable="0" parent="1">
          <mxGeometry x="860.0031582256281" y="304.9596189432334" width="140.5736835487436" height="98.48076211353316" as="geometry" />
        </mxCell>
        <mxCell id="S6ZuTX8GFXmOVU9LahuD-602" value="" style="shape=parallelogram;perimeter=parallelogramPerimeter;whiteSpace=wrap;html=1;fixedSize=1;fontFamily=Helvetica;fontSize=11;fontColor=default;labelBackgroundColor=default;rotation=-30;rounded=1;fillColor=#FFFFFF;" vertex="1" parent="S6ZuTX8GFXmOVU9LahuD-612">
          <mxGeometry x="-2.213158225628206" y="34.24038105676658" width="145" height="30" as="geometry" />
        </mxCell>
        <mxCell id="S6ZuTX8GFXmOVU9LahuD-603" value="" style="ellipse;whiteSpace=wrap;html=1;aspect=fixed;movable=1;resizable=1;rotatable=1;deletable=1;editable=1;locked=0;connectable=1;fillColor=#dae8fc;strokeColor=#6c8ebf;" vertex="1" parent="S6ZuTX8GFXmOVU9LahuD-612">
          <mxGeometry x="28.066841774371767" y="66.24038105676658" width="9.722222222222223" height="9.722222222222223" as="geometry" />
        </mxCell>
        <mxCell id="S6ZuTX8GFXmOVU9LahuD-604" value="" style="ellipse;whiteSpace=wrap;html=1;aspect=fixed;movable=1;resizable=1;rotatable=1;deletable=1;editable=1;locked=0;connectable=1;fillColor=#DAE8FC;strokeColor=#707070;" vertex="1" parent="S6ZuTX8GFXmOVU9LahuD-612">
          <mxGeometry x="47.786841774371794" y="54.52038105676655" width="9.722222222222223" height="9.722222222222223" as="geometry" />
        </mxCell>
        <mxCell id="S6ZuTX8GFXmOVU9LahuD-605" value="" style="ellipse;whiteSpace=wrap;html=1;aspect=fixed;movable=1;resizable=1;rotatable=1;deletable=1;editable=1;locked=0;connectable=1;fillColor=#707070;strokeColor=#707070;" vertex="1" parent="S6ZuTX8GFXmOVU9LahuD-612">
          <mxGeometry x="67.7868417743718" y="43.38038105676651" width="9.722222222222223" height="9.722222222222223" as="geometry" />
        </mxCell>
        <mxCell id="S6ZuTX8GFXmOVU9LahuD-606" value="" style="ellipse;whiteSpace=wrap;html=1;aspect=fixed;movable=1;resizable=1;rotatable=1;deletable=1;editable=1;locked=0;connectable=1;fillColor=#dae8fc;strokeColor=#6c8ebf;" vertex="1" parent="S6ZuTX8GFXmOVU9LahuD-612">
          <mxGeometry x="87.7868417743718" y="33.080381056766555" width="9.722222222222223" height="9.722222222222223" as="geometry" />
        </mxCell>
        <mxCell id="S6ZuTX8GFXmOVU9LahuD-607" value="" style="ellipse;whiteSpace=wrap;html=1;aspect=fixed;movable=1;resizable=1;rotatable=1;deletable=1;editable=1;locked=0;connectable=1;fillColor=#707070;strokeColor=#707070;" vertex="1" parent="S6ZuTX8GFXmOVU9LahuD-612">
          <mxGeometry x="106.75684177437182" y="23.520381056766553" width="9.722222222222223" height="9.722222222222223" as="geometry" />
        </mxCell>
        <mxCell id="S6ZuTX8GFXmOVU9LahuD-598" value="" style="shape=parallelogram;perimeter=parallelogramPerimeter;whiteSpace=wrap;html=1;fixedSize=1;fontFamily=Helvetica;fontSize=11;fontColor=default;labelBackgroundColor=default;rotation=-30;rounded=1;fillColor=#EDE7F6;" vertex="1" parent="S6ZuTX8GFXmOVU9LahuD-612">
          <mxGeometry x="-55.21315822562815" y="12.800381056766582" width="93" height="30" as="geometry" />
        </mxCell>
        <mxCell id="S6ZuTX8GFXmOVU9LahuD-733" value="\(\boldsymbol{\eta}\)" style="text;whiteSpace=wrap;fontFamily=Helvetica;fontSize=13;fontColor=default;resizable=1;" vertex="1" parent="S6ZuTX8GFXmOVU9LahuD-612">
          <mxGeometry x="77.50684177437188" y="62.04038105676659" width="31" height="31" as="geometry" />
        </mxCell>
        <mxCell id="S6ZuTX8GFXmOVU9LahuD-734" value="\(\text{MLP}\)" style="text;whiteSpace=wrap;fontFamily=Helvetica;fontSize=12;fontColor=default;resizable=1;rotation=-30;" vertex="1" parent="S6ZuTX8GFXmOVU9LahuD-612">
          <mxGeometry x="-23.003158225628113" y="9.440381056766569" width="49" height="30" as="geometry" />
        </mxCell>
        <mxCell id="S6ZuTX8GFXmOVU9LahuD-619" value="&lt;font face=&quot;Times New Roman&quot;&gt;h&lt;/font&gt;" style="edgeLabel;html=1;align=center;verticalAlign=middle;resizable=0;points=[];fontFamily=Helvetica;fontSize=11;fontColor=default;labelBackgroundColor=default;" vertex="1" connectable="0" parent="1">
          <mxGeometry x="393.83020590166177" y="154.99909963762724" as="geometry">
            <mxPoint x="-9" y="-18" as="offset" />
          </mxGeometry>
        </mxCell>
        <mxCell id="S6ZuTX8GFXmOVU9LahuD-625" value="&lt;font face=&quot;黑体&quot; style=&quot;font-size: 14px;&quot;&gt;&lt;b&gt;输入层&lt;/b&gt;&lt;/font&gt;" style="shape=parallelogram;perimeter=parallelogramPerimeter;whiteSpace=wrap;html=1;fixedSize=1;fontFamily=Helvetica;fontSize=11;fontColor=default;labelBackgroundColor=default;rotation=25;opacity=0;" vertex="1" parent="1">
          <mxGeometry x="159" y="-42" width="123" height="62" as="geometry" />
        </mxCell>
        <mxCell id="S6ZuTX8GFXmOVU9LahuD-627" value="&lt;b style=&quot;font-size: 14px;&quot;&gt;&lt;font face=&quot;黑体&quot;&gt;Gconv1&lt;/font&gt;&lt;/b&gt;" style="shape=parallelogram;perimeter=parallelogramPerimeter;whiteSpace=wrap;html=1;fixedSize=1;fontFamily=Helvetica;fontSize=11;fontColor=default;labelBackgroundColor=default;rotation=25;opacity=0;" vertex="1" parent="1">
          <mxGeometry x="300" y="13.999999999999996" width="123" height="62" as="geometry" />
        </mxCell>
        <mxCell id="S6ZuTX8GFXmOVU9LahuD-628" value="&lt;font face=&quot;黑体&quot;&gt;&lt;b&gt;&lt;span style=&quot;font-size: 14px;&quot;&gt;Gconv&lt;/span&gt;&lt;span style=&quot;font-size: 14px;&quot;&gt;&lt;font style=&quot;color: rgb(74, 20, 140);&quot;&gt;2&lt;/font&gt;&lt;/span&gt;&lt;/b&gt;&lt;/font&gt;" style="shape=parallelogram;perimeter=parallelogramPerimeter;whiteSpace=wrap;html=1;fixedSize=1;fontFamily=Helvetica;fontSize=11;fontColor=default;labelBackgroundColor=default;rotation=25;opacity=0;" vertex="1" parent="1">
          <mxGeometry x="461" y="81" width="123" height="62" as="geometry" />
        </mxCell>
        <mxCell id="S6ZuTX8GFXmOVU9LahuD-629" value="&lt;font face=&quot;黑体&quot;&gt;&lt;b&gt;&lt;span style=&quot;font-size: 14px;&quot;&gt;Gconv&lt;/span&gt;&lt;span style=&quot;font-size: 14px;&quot;&gt;3&lt;/span&gt;&lt;/b&gt;&lt;/font&gt;" style="shape=parallelogram;perimeter=parallelogramPerimeter;whiteSpace=wrap;html=1;fixedSize=1;fontFamily=Helvetica;fontSize=11;fontColor=default;labelBackgroundColor=default;rotation=25;opacity=0;" vertex="1" parent="1">
          <mxGeometry x="615" y="149" width="123" height="62" as="geometry" />
        </mxCell>
        <mxCell id="S6ZuTX8GFXmOVU9LahuD-630" value="&lt;font face=&quot;黑体&quot; style=&quot;font-size: 14px;&quot;&gt;&lt;b&gt;输出层&lt;/b&gt;&lt;/font&gt;" style="shape=parallelogram;perimeter=parallelogramPerimeter;whiteSpace=wrap;html=1;fixedSize=1;fontFamily=Helvetica;fontSize=11;fontColor=default;labelBackgroundColor=default;rotation=25;opacity=0;" vertex="1" parent="1">
          <mxGeometry x="936" y="264" width="123" height="62" as="geometry" />
        </mxCell>
        <mxCell id="S6ZuTX8GFXmOVU9LahuD-633" value="&lt;b style=&quot;forced-color-adjust: none; color: rgb(0, 0, 0); font-family: &amp;quot;Times New Roman&amp;quot;; font-size: 10px; font-style: normal; font-variant-ligatures: normal; font-variant-caps: normal; letter-spacing: normal; orphans: 2; text-align: center; text-indent: 0px; text-transform: none; widows: 2; word-spacing: 0px; -webkit-text-stroke-width: 0px; white-space: nowrap; background-color: rgb(255, 255, 255); text-decoration-thickness: initial; text-decoration-style: initial; text-decoration-color: initial;&quot;&gt;Softmax&lt;/b&gt;" style="text;whiteSpace=wrap;html=1;fontFamily=Helvetica;fontSize=11;fontColor=default;labelBackgroundColor=default;rotation=20;" vertex="1" parent="1">
          <mxGeometry x="810.26" y="291.52" width="41" height="20" as="geometry" />
        </mxCell>
        <mxCell id="S6ZuTX8GFXmOVU9LahuD-729" value="" style="rounded=1;whiteSpace=wrap;html=1;strokeColor=#707070;align=center;verticalAlign=middle;fontFamily=Helvetica;fontSize=12;fontColor=default;resizable=1;fillColor=#FFFFFF;" vertex="1" parent="1">
          <mxGeometry x="712.26" y="-86.14" width="237" height="162.14" as="geometry" />
        </mxCell>
        <mxCell id="S6ZuTX8GFXmOVU9LahuD-384" value="" style="shape=parallelogram;perimeter=parallelogramPerimeter;whiteSpace=wrap;html=1;fixedSize=1;direction=south;rotation=75;fillColor=#B39DDB;strokeColor=#4A235A;" vertex="1" parent="1">
          <mxGeometry x="292.75" y="69.78000000000002" width="74.72" height="107.48" as="geometry" />
        </mxCell>
        <mxCell id="S6ZuTX8GFXmOVU9LahuD-385" value="" style="group;movable=0;resizable=0;rotatable=0;deletable=0;editable=0;locked=1;connectable=0;" vertex="1" connectable="0" parent="1">
          <mxGeometry x="305.72" y="90.00000000000001" width="68.97" height="94.96000000000001" as="geometry" />
        </mxCell>
        <mxCell id="S6ZuTX8GFXmOVU9LahuD-386" style="edgeStyle=none;shape=connector;rounded=0;orthogonalLoop=1;jettySize=auto;html=1;exitX=1;exitY=1;exitDx=0;exitDy=0;entryX=0;entryY=0;entryDx=0;entryDy=0;strokeColor=default;align=center;verticalAlign=middle;fontFamily=Helvetica;fontSize=11;fontColor=default;labelBackgroundColor=default;startFill=0;endArrow=none;" edge="1" parent="S6ZuTX8GFXmOVU9LahuD-385" source="S6ZuTX8GFXmOVU9LahuD-387" target="S6ZuTX8GFXmOVU9LahuD-393">
          <mxGeometry relative="1" as="geometry" />
        </mxCell>
        <mxCell id="S6ZuTX8GFXmOVU9LahuD-387" value="" style="ellipse;whiteSpace=wrap;html=1;aspect=fixed;movable=1;resizable=1;rotatable=1;deletable=1;editable=1;locked=0;connectable=1;fillColor=#dae8fc;strokeColor=#6c8ebf;" vertex="1" parent="S6ZuTX8GFXmOVU9LahuD-385">
          <mxGeometry x="39.72" width="9.722222222222223" height="9.722222222222223" as="geometry" />
        </mxCell>
        <mxCell id="S6ZuTX8GFXmOVU9LahuD-388" style="edgeStyle=none;shape=connector;rounded=0;orthogonalLoop=1;jettySize=auto;html=1;exitX=0;exitY=1;exitDx=0;exitDy=0;entryX=1;entryY=0;entryDx=0;entryDy=0;strokeColor=default;align=center;verticalAlign=middle;fontFamily=Helvetica;fontSize=11;fontColor=default;labelBackgroundColor=default;startFill=0;endArrow=none;" edge="1" parent="S6ZuTX8GFXmOVU9LahuD-385" source="S6ZuTX8GFXmOVU9LahuD-389" target="S6ZuTX8GFXmOVU9LahuD-398">
          <mxGeometry relative="1" as="geometry" />
        </mxCell>
        <mxCell id="S6ZuTX8GFXmOVU9LahuD-389" value="" style="ellipse;whiteSpace=wrap;html=1;aspect=fixed;movable=1;resizable=1;rotatable=1;deletable=1;editable=1;locked=0;connectable=1;fillColor=#dae8fc;strokeColor=#6c8ebf;" vertex="1" parent="S6ZuTX8GFXmOVU9LahuD-385">
          <mxGeometry x="20.280000000000005" y="24" width="9.722222222222223" height="9.722222222222223" as="geometry" />
        </mxCell>
        <mxCell id="S6ZuTX8GFXmOVU9LahuD-390" style="edgeStyle=none;shape=connector;rounded=0;orthogonalLoop=1;jettySize=auto;html=1;exitX=1;exitY=0;exitDx=0;exitDy=0;entryX=0.5;entryY=1;entryDx=0;entryDy=0;strokeColor=default;align=center;verticalAlign=middle;fontFamily=Helvetica;fontSize=11;fontColor=default;labelBackgroundColor=default;startFill=0;endArrow=none;" edge="1" parent="S6ZuTX8GFXmOVU9LahuD-385" source="S6ZuTX8GFXmOVU9LahuD-391" target="S6ZuTX8GFXmOVU9LahuD-396">
          <mxGeometry relative="1" as="geometry" />
        </mxCell>
        <mxCell id="S6ZuTX8GFXmOVU9LahuD-391" value="" style="ellipse;whiteSpace=wrap;html=1;aspect=fixed;movable=1;resizable=1;rotatable=1;deletable=1;editable=1;locked=0;connectable=1;fillColor=#dae8fc;strokeColor=#6c8ebf;" vertex="1" parent="S6ZuTX8GFXmOVU9LahuD-385">
          <mxGeometry x="30" y="57.72" width="9.722222222222223" height="9.722222222222223" as="geometry" />
        </mxCell>
        <mxCell id="S6ZuTX8GFXmOVU9LahuD-392" style="edgeStyle=none;shape=connector;rounded=0;orthogonalLoop=1;jettySize=auto;html=1;exitX=0;exitY=1;exitDx=0;exitDy=0;entryX=1;entryY=0;entryDx=0;entryDy=0;strokeColor=default;align=center;verticalAlign=middle;fontFamily=Helvetica;fontSize=11;fontColor=default;labelBackgroundColor=default;startFill=0;endArrow=none;" edge="1" parent="S6ZuTX8GFXmOVU9LahuD-385" source="S6ZuTX8GFXmOVU9LahuD-393" target="S6ZuTX8GFXmOVU9LahuD-389">
          <mxGeometry relative="1" as="geometry" />
        </mxCell>
        <mxCell id="S6ZuTX8GFXmOVU9LahuD-393" value="" style="ellipse;whiteSpace=wrap;html=1;aspect=fixed;movable=1;resizable=1;rotatable=1;deletable=1;editable=1;locked=0;connectable=1;fillColor=#dae8fc;strokeColor=#6c8ebf;" vertex="1" parent="S6ZuTX8GFXmOVU9LahuD-385">
          <mxGeometry x="54.72" y="14.28" width="9.722222222222223" height="9.722222222222223" as="geometry" />
        </mxCell>
        <mxCell id="S6ZuTX8GFXmOVU9LahuD-394" style="edgeStyle=orthogonalEdgeStyle;rounded=0;orthogonalLoop=1;jettySize=auto;html=1;exitX=1;exitY=0.5;exitDx=0;exitDy=0;entryX=0;entryY=0.5;entryDx=0;entryDy=0;startArrow=none;startFill=0;jumpStyle=none;curved=1;endArrow=none;" edge="1" parent="S6ZuTX8GFXmOVU9LahuD-385" source="S6ZuTX8GFXmOVU9LahuD-395" target="S6ZuTX8GFXmOVU9LahuD-387">
          <mxGeometry relative="1" as="geometry" />
        </mxCell>
        <mxCell id="S6ZuTX8GFXmOVU9LahuD-395" value="" style="ellipse;whiteSpace=wrap;html=1;aspect=fixed;movable=1;resizable=1;rotatable=1;deletable=1;editable=1;locked=0;connectable=1;fillColor=#dae8fc;strokeColor=#6c8ebf;" vertex="1" parent="S6ZuTX8GFXmOVU9LahuD-385">
          <mxGeometry x="10" width="9.72" height="9.72" as="geometry" />
        </mxCell>
        <mxCell id="S6ZuTX8GFXmOVU9LahuD-396" value="" style="ellipse;whiteSpace=wrap;html=1;aspect=fixed;movable=1;resizable=1;rotatable=1;deletable=1;editable=1;locked=0;connectable=1;fillColor=#dae8fc;strokeColor=#6c8ebf;" vertex="1" parent="S6ZuTX8GFXmOVU9LahuD-385">
          <mxGeometry x="39.72" y="32.28" width="9.722222222222223" height="9.722222222222223" as="geometry" />
        </mxCell>
        <mxCell id="S6ZuTX8GFXmOVU9LahuD-397" style="edgeStyle=none;shape=connector;rounded=0;orthogonalLoop=1;jettySize=auto;html=1;exitX=1;exitY=0.5;exitDx=0;exitDy=0;entryX=0;entryY=1;entryDx=0;entryDy=0;strokeColor=default;align=center;verticalAlign=middle;fontFamily=Helvetica;fontSize=11;fontColor=default;labelBackgroundColor=default;startFill=0;endArrow=none;" edge="1" parent="S6ZuTX8GFXmOVU9LahuD-385" source="S6ZuTX8GFXmOVU9LahuD-398" target="S6ZuTX8GFXmOVU9LahuD-396">
          <mxGeometry relative="1" as="geometry" />
        </mxCell>
        <mxCell id="S6ZuTX8GFXmOVU9LahuD-398" value="" style="ellipse;whiteSpace=wrap;html=1;aspect=fixed;movable=1;resizable=1;rotatable=1;deletable=1;editable=1;locked=0;connectable=1;fillColor=#DAE8FC;strokeColor=#707070;" vertex="1" parent="S6ZuTX8GFXmOVU9LahuD-385">
          <mxGeometry x="10.000000000000002" y="57.72" width="9.722222222222223" height="9.722222222222223" as="geometry" />
        </mxCell>
        <mxCell id="S6ZuTX8GFXmOVU9LahuD-399" style="rounded=0;orthogonalLoop=1;jettySize=auto;html=1;exitX=1;exitY=1;exitDx=0;exitDy=0;entryX=0;entryY=0.5;entryDx=0;entryDy=0;endArrow=none;startFill=0;" edge="1" parent="S6ZuTX8GFXmOVU9LahuD-385" source="S6ZuTX8GFXmOVU9LahuD-400" target="S6ZuTX8GFXmOVU9LahuD-398">
          <mxGeometry relative="1" as="geometry" />
        </mxCell>
        <mxCell id="S6ZuTX8GFXmOVU9LahuD-400" value="" style="ellipse;whiteSpace=wrap;html=1;aspect=fixed;movable=1;resizable=1;rotatable=1;deletable=1;editable=1;locked=0;connectable=1;fillColor=#707070;strokeColor=#6c8ebf;" vertex="1" parent="S6ZuTX8GFXmOVU9LahuD-385">
          <mxGeometry x="-9.719999999999999" y="48" width="9.722222222222223" height="9.722222222222223" as="geometry" />
        </mxCell>
        <mxCell id="S6ZuTX8GFXmOVU9LahuD-401" style="rounded=0;orthogonalLoop=1;jettySize=auto;html=1;exitX=1;exitY=0;exitDx=0;exitDy=0;entryX=0;entryY=1;entryDx=0;entryDy=0;endArrow=none;startFill=0;" edge="1" parent="1" source="S6ZuTX8GFXmOVU9LahuD-404" target="S6ZuTX8GFXmOVU9LahuD-395">
          <mxGeometry relative="1" as="geometry" />
        </mxCell>
        <mxCell id="S6ZuTX8GFXmOVU9LahuD-402" style="edgeStyle=orthogonalEdgeStyle;rounded=0;orthogonalLoop=1;jettySize=auto;html=1;exitX=0.5;exitY=1;exitDx=0;exitDy=0;entryX=0.5;entryY=0;entryDx=0;entryDy=0;endArrow=none;startFill=0;" edge="1" parent="1" source="S6ZuTX8GFXmOVU9LahuD-404" target="S6ZuTX8GFXmOVU9LahuD-400">
          <mxGeometry relative="1" as="geometry" />
        </mxCell>
        <mxCell id="S6ZuTX8GFXmOVU9LahuD-403" style="edgeStyle=none;shape=connector;rounded=0;orthogonalLoop=1;jettySize=auto;html=1;exitX=1;exitY=0.5;exitDx=0;exitDy=0;entryX=0;entryY=0.5;entryDx=0;entryDy=0;strokeColor=default;align=center;verticalAlign=middle;fontFamily=Helvetica;fontSize=11;fontColor=default;labelBackgroundColor=default;startFill=0;endArrow=none;" edge="1" parent="1" source="S6ZuTX8GFXmOVU9LahuD-404" target="S6ZuTX8GFXmOVU9LahuD-389">
          <mxGeometry relative="1" as="geometry" />
        </mxCell>
        <mxCell id="S6ZuTX8GFXmOVU9LahuD-404" value="" style="ellipse;whiteSpace=wrap;html=1;aspect=fixed;movable=1;resizable=1;rotatable=1;deletable=1;editable=1;locked=0;connectable=1;fillColor=#dae8fc;strokeColor=#6c8ebf;" vertex="1" parent="1">
          <mxGeometry x="296" y="114.42" width="9.722222222222223" height="9.722222222222223" as="geometry" />
        </mxCell>
        <mxCell id="S6ZuTX8GFXmOVU9LahuD-405" style="edgeStyle=none;shape=connector;rounded=0;orthogonalLoop=1;jettySize=auto;html=1;exitX=0.5;exitY=0;exitDx=0;exitDy=0;entryX=0.5;entryY=1;entryDx=0;entryDy=0;strokeColor=default;align=center;verticalAlign=middle;fontFamily=Helvetica;fontSize=11;fontColor=default;labelBackgroundColor=default;startFill=0;endArrow=none;" edge="1" parent="1" source="S6ZuTX8GFXmOVU9LahuD-406" target="S6ZuTX8GFXmOVU9LahuD-393">
          <mxGeometry relative="1" as="geometry" />
        </mxCell>
        <mxCell id="S6ZuTX8GFXmOVU9LahuD-406" value="" style="ellipse;whiteSpace=wrap;html=1;aspect=fixed;movable=1;resizable=1;rotatable=1;deletable=1;editable=1;locked=0;connectable=1;fillColor=#dae8fc;strokeColor=#6c8ebf;" vertex="1" parent="1">
          <mxGeometry x="361" y="130.14000000000004" width="9.722222222222223" height="9.722222222222223" as="geometry" />
        </mxCell>
        <mxCell id="S6ZuTX8GFXmOVU9LahuD-407" style="edgeStyle=none;shape=connector;rounded=0;orthogonalLoop=1;jettySize=auto;html=1;exitX=1;exitY=0.5;exitDx=0;exitDy=0;entryX=0;entryY=1;entryDx=0;entryDy=0;strokeColor=default;align=center;verticalAlign=middle;fontFamily=Helvetica;fontSize=11;fontColor=default;labelBackgroundColor=default;startFill=0;endArrow=none;" edge="1" parent="1" source="S6ZuTX8GFXmOVU9LahuD-391" target="S6ZuTX8GFXmOVU9LahuD-406">
          <mxGeometry relative="1" as="geometry" />
        </mxCell>
        <mxCell id="S6ZuTX8GFXmOVU9LahuD-408" style="edgeStyle=none;shape=connector;rounded=0;orthogonalLoop=1;jettySize=auto;html=1;exitX=1;exitY=0.5;exitDx=0;exitDy=0;entryX=0;entryY=0;entryDx=0;entryDy=0;strokeColor=default;align=center;verticalAlign=middle;fontFamily=Helvetica;fontSize=11;fontColor=default;labelBackgroundColor=default;startFill=0;endArrow=none;" edge="1" parent="1" source="S6ZuTX8GFXmOVU9LahuD-396" target="S6ZuTX8GFXmOVU9LahuD-406">
          <mxGeometry relative="1" as="geometry" />
        </mxCell>
        <mxCell id="S6ZuTX8GFXmOVU9LahuD-731" value="$$\mathbf{X}$$" style="text;strokeColor=none;align=center;fillColor=none;html=1;verticalAlign=middle;whiteSpace=wrap;rounded=0;fontFamily=Helvetica;fontSize=12;fontColor=default;resizable=1;" vertex="1" parent="1">
          <mxGeometry x="77" y="-21" width="60" height="30" as="geometry" />
        </mxCell>
        <mxCell id="S6ZuTX8GFXmOVU9LahuD-4" value="" style="ellipse;whiteSpace=wrap;html=1;aspect=fixed;movable=1;resizable=1;rotatable=1;deletable=1;editable=1;locked=0;connectable=1;fillColor=#dae8fc;strokeColor=#6c8ebf;" vertex="1" parent="1">
          <mxGeometry x="125" y="40.14000000000003" width="9.722222222222223" height="9.722222222222223" as="geometry" />
        </mxCell>
        <mxCell id="S6ZuTX8GFXmOVU9LahuD-722" value="" style="group" vertex="1" connectable="0" parent="1">
          <mxGeometry x="91" y="7" width="72.44000000000003" height="91.32000000000001" as="geometry" />
        </mxCell>
        <mxCell id="S6ZuTX8GFXmOVU9LahuD-641" value="" style="shape=parallelogram;perimeter=parallelogramPerimeter;whiteSpace=wrap;html=1;fixedSize=1;direction=south;rotation=75;fillColor=#B3E0F2;strokeColor=#36393d;movable=1;resizable=1;rotatable=1;deletable=1;editable=1;locked=0;connectable=1;" vertex="1" parent="S6ZuTX8GFXmOVU9LahuD-722">
          <mxGeometry x="-5.279999999999973" y="-15.159999999999997" width="74.72" height="107.48" as="geometry" />
        </mxCell>
        <mxCell id="S6ZuTX8GFXmOVU9LahuD-727" value="" style="group" vertex="1" connectable="0" parent="S6ZuTX8GFXmOVU9LahuD-722">
          <mxGeometry width="63.44222222222225" height="74.44222222222223" as="geometry" />
        </mxCell>
        <mxCell id="S6ZuTX8GFXmOVU9LahuD-701" value="" style="group;fillColor=none;" vertex="1" connectable="0" parent="S6ZuTX8GFXmOVU9LahuD-727">
          <mxGeometry y="12.719999999999999" width="9.722222222222172" height="61.72222222222223" as="geometry" />
        </mxCell>
        <mxCell id="S6ZuTX8GFXmOVU9LahuD-672" value="" style="ellipse;whiteSpace=wrap;html=1;aspect=fixed;movable=1;resizable=1;rotatable=1;deletable=1;editable=1;locked=0;connectable=1;fillColor=#707070;strokeColor=#707070;align=center;verticalAlign=middle;fontFamily=Helvetica;fontSize=12;fontColor=default;" vertex="1" parent="S6ZuTX8GFXmOVU9LahuD-701">
          <mxGeometry y="13" width="9.722222222222223" height="9.722222222222223" as="geometry" />
        </mxCell>
        <mxCell id="S6ZuTX8GFXmOVU9LahuD-648" value="" style="ellipse;whiteSpace=wrap;html=1;aspect=fixed;movable=1;resizable=1;rotatable=1;deletable=1;editable=1;locked=0;connectable=1;fillColor=#FFFFFF;strokeColor=#6c8ebf;" vertex="1" parent="S6ZuTX8GFXmOVU9LahuD-701">
          <mxGeometry width="9.722222222222223" height="9.722222222222223" as="geometry" />
        </mxCell>
        <mxCell id="S6ZuTX8GFXmOVU9LahuD-698" value="" style="ellipse;whiteSpace=wrap;html=1;aspect=fixed;movable=1;resizable=1;rotatable=1;deletable=1;editable=1;locked=0;connectable=1;fillColor=#dae8fc;strokeColor=#6c8ebf;" vertex="1" parent="S6ZuTX8GFXmOVU9LahuD-701">
          <mxGeometry y="26" width="9.722222222222223" height="9.722222222222223" as="geometry" />
        </mxCell>
        <mxCell id="S6ZuTX8GFXmOVU9LahuD-699" value="" style="ellipse;whiteSpace=wrap;html=1;aspect=fixed;movable=1;resizable=1;rotatable=1;deletable=1;editable=1;locked=0;connectable=1;fillColor=#707070;strokeColor=#707070;align=center;verticalAlign=middle;fontFamily=Helvetica;fontSize=12;fontColor=default;" vertex="1" parent="S6ZuTX8GFXmOVU9LahuD-701">
          <mxGeometry y="39" width="9.722222222222223" height="9.722222222222223" as="geometry" />
        </mxCell>
        <mxCell id="S6ZuTX8GFXmOVU9LahuD-700" value="" style="ellipse;whiteSpace=wrap;html=1;aspect=fixed;movable=1;resizable=1;rotatable=1;deletable=1;editable=1;locked=0;connectable=1;fillColor=#dae8fc;strokeColor=#6c8ebf;" vertex="1" parent="S6ZuTX8GFXmOVU9LahuD-701">
          <mxGeometry y="52" width="9.722222222222223" height="9.722222222222223" as="geometry" />
        </mxCell>
        <mxCell id="S6ZuTX8GFXmOVU9LahuD-702" value="" style="ellipse;whiteSpace=wrap;html=1;aspect=fixed;movable=1;resizable=1;rotatable=1;deletable=1;editable=1;locked=0;connectable=1;fillColor=#707070;strokeColor=#707070;align=center;verticalAlign=middle;fontFamily=Helvetica;fontSize=12;fontColor=default;" vertex="1" parent="S6ZuTX8GFXmOVU9LahuD-727">
          <mxGeometry x="14" y="22.72" width="9.722222222222223" height="9.722222222222223" as="geometry" />
        </mxCell>
        <mxCell id="S6ZuTX8GFXmOVU9LahuD-703" value="" style="ellipse;whiteSpace=wrap;html=1;aspect=fixed;movable=1;resizable=1;rotatable=1;deletable=1;editable=1;locked=0;connectable=1;fillColor=#FFFFFF;strokeColor=#6c8ebf;align=center;verticalAlign=middle;fontFamily=Helvetica;fontSize=12;fontColor=default;" vertex="1" parent="S6ZuTX8GFXmOVU9LahuD-727">
          <mxGeometry x="14" y="9.719999999999999" width="9.722222222222223" height="9.722222222222223" as="geometry" />
        </mxCell>
        <mxCell id="S6ZuTX8GFXmOVU9LahuD-704" value="" style="ellipse;whiteSpace=wrap;html=1;aspect=fixed;movable=1;resizable=1;rotatable=1;deletable=1;editable=1;locked=0;connectable=1;fillColor=#707070;strokeColor=#707070;align=center;verticalAlign=middle;fontFamily=Helvetica;fontSize=12;fontColor=default;" vertex="1" parent="S6ZuTX8GFXmOVU9LahuD-727">
          <mxGeometry x="14" y="35.72" width="9.722222222222223" height="9.722222222222223" as="geometry" />
        </mxCell>
        <mxCell id="S6ZuTX8GFXmOVU9LahuD-705" value="" style="ellipse;whiteSpace=wrap;html=1;aspect=fixed;movable=1;resizable=1;rotatable=1;deletable=1;editable=1;locked=0;connectable=1;fillColor=#dae8fc;strokeColor=#6c8ebf;" vertex="1" parent="S6ZuTX8GFXmOVU9LahuD-727">
          <mxGeometry x="14" y="48.72" width="9.722222222222223" height="9.722222222222223" as="geometry" />
        </mxCell>
        <mxCell id="S6ZuTX8GFXmOVU9LahuD-706" value="" style="ellipse;whiteSpace=wrap;html=1;aspect=fixed;movable=1;resizable=1;rotatable=1;deletable=1;editable=1;locked=0;connectable=1;fillColor=#707070;strokeColor=#707070;align=center;verticalAlign=middle;fontFamily=Helvetica;fontSize=12;fontColor=default;" vertex="1" parent="S6ZuTX8GFXmOVU9LahuD-727">
          <mxGeometry x="14" y="61.72" width="9.722222222222223" height="9.722222222222223" as="geometry" />
        </mxCell>
        <mxCell id="S6ZuTX8GFXmOVU9LahuD-707" value="" style="ellipse;whiteSpace=wrap;html=1;aspect=fixed;movable=1;resizable=1;rotatable=1;deletable=1;editable=1;locked=0;connectable=1;fillColor=#FFFFFF;strokeColor=#6c8ebf;align=center;verticalAlign=middle;fontFamily=Helvetica;fontSize=12;fontColor=default;" vertex="1" parent="S6ZuTX8GFXmOVU9LahuD-727">
          <mxGeometry x="27" y="19.72" width="9.722222222222223" height="9.722222222222223" as="geometry" />
        </mxCell>
        <mxCell id="S6ZuTX8GFXmOVU9LahuD-708" value="" style="ellipse;whiteSpace=wrap;html=1;aspect=fixed;movable=1;resizable=1;rotatable=1;deletable=1;editable=1;locked=0;connectable=1;fillColor=#FFFFFF;strokeColor=#6c8ebf;align=center;verticalAlign=middle;fontFamily=Helvetica;fontSize=12;fontColor=default;" vertex="1" parent="S6ZuTX8GFXmOVU9LahuD-727">
          <mxGeometry x="27" y="6.719999999999999" width="9.722222222222223" height="9.722222222222223" as="geometry" />
        </mxCell>
        <mxCell id="S6ZuTX8GFXmOVU9LahuD-709" value="" style="ellipse;whiteSpace=wrap;html=1;aspect=fixed;movable=1;resizable=1;rotatable=1;deletable=1;editable=1;locked=0;connectable=1;fillColor=#dae8fc;strokeColor=#6c8ebf;" vertex="1" parent="S6ZuTX8GFXmOVU9LahuD-727">
          <mxGeometry x="27" y="32.72" width="9.722222222222223" height="9.722222222222223" as="geometry" />
        </mxCell>
        <mxCell id="S6ZuTX8GFXmOVU9LahuD-710" value="" style="ellipse;whiteSpace=wrap;html=1;aspect=fixed;movable=1;resizable=1;rotatable=1;deletable=1;editable=1;locked=0;connectable=1;fillColor=#dae8fc;strokeColor=#6c8ebf;" vertex="1" parent="S6ZuTX8GFXmOVU9LahuD-727">
          <mxGeometry x="27" y="45.72" width="9.722222222222223" height="9.722222222222223" as="geometry" />
        </mxCell>
        <mxCell id="S6ZuTX8GFXmOVU9LahuD-711" value="" style="ellipse;whiteSpace=wrap;html=1;aspect=fixed;movable=1;resizable=1;rotatable=1;deletable=1;editable=1;locked=0;connectable=1;fillColor=#dae8fc;strokeColor=#6c8ebf;" vertex="1" parent="S6ZuTX8GFXmOVU9LahuD-727">
          <mxGeometry x="27" y="58.72" width="9.722222222222223" height="9.722222222222223" as="geometry" />
        </mxCell>
        <mxCell id="S6ZuTX8GFXmOVU9LahuD-712" value="" style="ellipse;whiteSpace=wrap;html=1;aspect=fixed;movable=1;resizable=1;rotatable=1;deletable=1;editable=1;locked=0;connectable=1;fillColor=#707070;strokeColor=#707070;align=center;verticalAlign=middle;fontFamily=Helvetica;fontSize=12;fontColor=default;" vertex="1" parent="S6ZuTX8GFXmOVU9LahuD-727">
          <mxGeometry x="40" y="16.72" width="9.722222222222223" height="9.722222222222223" as="geometry" />
        </mxCell>
        <mxCell id="S6ZuTX8GFXmOVU9LahuD-713" value="" style="ellipse;whiteSpace=wrap;html=1;aspect=fixed;movable=1;resizable=1;rotatable=1;deletable=1;editable=1;locked=0;connectable=1;fillColor=#FFFFFF;strokeColor=#6c8ebf;align=center;verticalAlign=middle;fontFamily=Helvetica;fontSize=12;fontColor=default;" vertex="1" parent="S6ZuTX8GFXmOVU9LahuD-727">
          <mxGeometry x="40" y="3.719999999999999" width="9.722222222222223" height="9.722222222222223" as="geometry" />
        </mxCell>
        <mxCell id="S6ZuTX8GFXmOVU9LahuD-714" value="" style="ellipse;whiteSpace=wrap;html=1;aspect=fixed;movable=1;resizable=1;rotatable=1;deletable=1;editable=1;locked=0;connectable=1;fillColor=#dae8fc;strokeColor=#6c8ebf;" vertex="1" parent="S6ZuTX8GFXmOVU9LahuD-727">
          <mxGeometry x="40" y="29.72" width="9.722222222222223" height="9.722222222222223" as="geometry" />
        </mxCell>
        <mxCell id="S6ZuTX8GFXmOVU9LahuD-715" value="" style="ellipse;whiteSpace=wrap;html=1;aspect=fixed;movable=1;resizable=1;rotatable=1;deletable=1;editable=1;locked=0;connectable=1;fillColor=#707070;strokeColor=#707070;align=center;verticalAlign=middle;fontFamily=Helvetica;fontSize=12;fontColor=default;" vertex="1" parent="S6ZuTX8GFXmOVU9LahuD-727">
          <mxGeometry x="40" y="42.72" width="9.722222222222223" height="9.722222222222223" as="geometry" />
        </mxCell>
        <mxCell id="S6ZuTX8GFXmOVU9LahuD-716" value="" style="ellipse;whiteSpace=wrap;html=1;aspect=fixed;movable=1;resizable=1;rotatable=1;deletable=1;editable=1;locked=0;connectable=1;fillColor=#dae8fc;strokeColor=#6c8ebf;" vertex="1" parent="S6ZuTX8GFXmOVU9LahuD-727">
          <mxGeometry x="40" y="55.72" width="9.722222222222223" height="9.722222222222223" as="geometry" />
        </mxCell>
        <mxCell id="S6ZuTX8GFXmOVU9LahuD-717" value="" style="ellipse;whiteSpace=wrap;html=1;aspect=fixed;movable=1;resizable=1;rotatable=1;deletable=1;editable=1;locked=0;connectable=1;fillColor=#FFFFFF;strokeColor=#6c8ebf;align=center;verticalAlign=middle;fontFamily=Helvetica;fontSize=12;fontColor=default;" vertex="1" parent="S6ZuTX8GFXmOVU9LahuD-727">
          <mxGeometry x="53.72000000000003" y="13" width="9.722222222222223" height="9.722222222222223" as="geometry" />
        </mxCell>
        <mxCell id="S6ZuTX8GFXmOVU9LahuD-718" value="" style="ellipse;whiteSpace=wrap;html=1;aspect=fixed;movable=1;resizable=1;rotatable=1;deletable=1;editable=1;locked=0;connectable=1;fillColor=#707070;strokeColor=#707070;align=center;verticalAlign=middle;fontFamily=Helvetica;fontSize=12;fontColor=default;" vertex="1" parent="S6ZuTX8GFXmOVU9LahuD-727">
          <mxGeometry x="53.72000000000003" width="9.722222222222223" height="9.722222222222223" as="geometry" />
        </mxCell>
        <mxCell id="S6ZuTX8GFXmOVU9LahuD-719" value="" style="ellipse;whiteSpace=wrap;html=1;aspect=fixed;movable=1;resizable=1;rotatable=1;deletable=1;editable=1;locked=0;connectable=1;fillColor=#707070;strokeColor=#707070;align=center;verticalAlign=middle;fontFamily=Helvetica;fontSize=12;fontColor=default;" vertex="1" parent="S6ZuTX8GFXmOVU9LahuD-727">
          <mxGeometry x="53.72000000000003" y="26" width="9.722222222222223" height="9.722222222222223" as="geometry" />
        </mxCell>
        <mxCell id="S6ZuTX8GFXmOVU9LahuD-720" value="" style="ellipse;whiteSpace=wrap;html=1;aspect=fixed;movable=1;resizable=1;rotatable=1;deletable=1;editable=1;locked=0;connectable=1;fillColor=#dae8fc;strokeColor=#6c8ebf;" vertex="1" parent="S6ZuTX8GFXmOVU9LahuD-727">
          <mxGeometry x="53.72000000000003" y="39" width="9.722222222222223" height="9.722222222222223" as="geometry" />
        </mxCell>
        <mxCell id="S6ZuTX8GFXmOVU9LahuD-721" value="" style="ellipse;whiteSpace=wrap;html=1;aspect=fixed;movable=1;resizable=1;rotatable=1;deletable=1;editable=1;locked=0;connectable=1;fillColor=#707070;strokeColor=#707070;align=center;verticalAlign=middle;fontFamily=Helvetica;fontSize=12;fontColor=default;" vertex="1" parent="S6ZuTX8GFXmOVU9LahuD-727">
          <mxGeometry x="53.72000000000003" y="52" width="9.722222222222223" height="9.722222222222223" as="geometry" />
        </mxCell>
        <mxCell id="S6ZuTX8GFXmOVU9LahuD-409" value="" style="group" vertex="1" connectable="0" parent="1">
          <mxGeometry x="134" y="28.000000000000014" width="78.69" height="102.99999999999999" as="geometry" />
        </mxCell>
        <mxCell id="S6ZuTX8GFXmOVU9LahuD-410" value="" style="shape=parallelogram;perimeter=parallelogramPerimeter;whiteSpace=wrap;html=1;fixedSize=1;direction=south;rotation=75;fillColor=#E3F2FD;strokeColor=#36393d;" vertex="1" parent="S6ZuTX8GFXmOVU9LahuD-409">
          <mxGeometry x="-3.25" y="-20.22" width="74.72" height="107.48" as="geometry" />
        </mxCell>
        <mxCell id="S6ZuTX8GFXmOVU9LahuD-411" value="" style="group;movable=0;resizable=0;rotatable=0;deletable=0;editable=0;locked=1;connectable=0;" vertex="1" connectable="0" parent="S6ZuTX8GFXmOVU9LahuD-409">
          <mxGeometry x="9.719999999999999" width="68.97" height="94.96000000000001" as="geometry" />
        </mxCell>
        <mxCell id="S6ZuTX8GFXmOVU9LahuD-412" style="edgeStyle=none;shape=connector;rounded=0;orthogonalLoop=1;jettySize=auto;html=1;exitX=1;exitY=1;exitDx=0;exitDy=0;entryX=0;entryY=0;entryDx=0;entryDy=0;strokeColor=default;align=center;verticalAlign=middle;fontFamily=Helvetica;fontSize=11;fontColor=default;labelBackgroundColor=default;startFill=0;endArrow=none;" edge="1" parent="S6ZuTX8GFXmOVU9LahuD-411" source="S6ZuTX8GFXmOVU9LahuD-413" target="S6ZuTX8GFXmOVU9LahuD-419">
          <mxGeometry relative="1" as="geometry" />
        </mxCell>
        <mxCell id="S6ZuTX8GFXmOVU9LahuD-413" value="" style="ellipse;whiteSpace=wrap;html=1;aspect=fixed;movable=1;resizable=1;rotatable=1;deletable=1;editable=1;locked=0;connectable=1;fillColor=#dae8fc;strokeColor=#6c8ebf;" vertex="1" parent="S6ZuTX8GFXmOVU9LahuD-411">
          <mxGeometry x="39.72" width="9.722222222222223" height="9.722222222222223" as="geometry" />
        </mxCell>
        <mxCell id="S6ZuTX8GFXmOVU9LahuD-414" style="edgeStyle=none;shape=connector;rounded=0;orthogonalLoop=1;jettySize=auto;html=1;exitX=0;exitY=1;exitDx=0;exitDy=0;entryX=1;entryY=0;entryDx=0;entryDy=0;strokeColor=default;align=center;verticalAlign=middle;fontFamily=Helvetica;fontSize=11;fontColor=default;labelBackgroundColor=default;startFill=0;endArrow=none;" edge="1" parent="S6ZuTX8GFXmOVU9LahuD-411" source="S6ZuTX8GFXmOVU9LahuD-415" target="S6ZuTX8GFXmOVU9LahuD-424">
          <mxGeometry relative="1" as="geometry" />
        </mxCell>
        <mxCell id="S6ZuTX8GFXmOVU9LahuD-415" value="" style="ellipse;whiteSpace=wrap;html=1;aspect=fixed;movable=1;resizable=1;rotatable=1;deletable=1;editable=1;locked=0;connectable=1;fillColor=#dae8fc;strokeColor=#6c8ebf;" vertex="1" parent="S6ZuTX8GFXmOVU9LahuD-411">
          <mxGeometry x="20.280000000000005" y="24" width="9.722222222222223" height="9.722222222222223" as="geometry" />
        </mxCell>
        <mxCell id="S6ZuTX8GFXmOVU9LahuD-416" style="edgeStyle=none;shape=connector;rounded=0;orthogonalLoop=1;jettySize=auto;html=1;exitX=1;exitY=0;exitDx=0;exitDy=0;entryX=0.5;entryY=1;entryDx=0;entryDy=0;strokeColor=default;align=center;verticalAlign=middle;fontFamily=Helvetica;fontSize=11;fontColor=default;labelBackgroundColor=default;startFill=0;endArrow=none;" edge="1" parent="S6ZuTX8GFXmOVU9LahuD-411" source="S6ZuTX8GFXmOVU9LahuD-417" target="S6ZuTX8GFXmOVU9LahuD-422">
          <mxGeometry relative="1" as="geometry" />
        </mxCell>
        <mxCell id="S6ZuTX8GFXmOVU9LahuD-417" value="" style="ellipse;whiteSpace=wrap;html=1;aspect=fixed;movable=1;resizable=1;rotatable=1;deletable=1;editable=1;locked=0;connectable=1;fillColor=#dae8fc;strokeColor=#6c8ebf;" vertex="1" parent="S6ZuTX8GFXmOVU9LahuD-411">
          <mxGeometry x="30" y="57.72" width="9.722222222222223" height="9.722222222222223" as="geometry" />
        </mxCell>
        <mxCell id="S6ZuTX8GFXmOVU9LahuD-418" style="edgeStyle=none;shape=connector;rounded=0;orthogonalLoop=1;jettySize=auto;html=1;exitX=0;exitY=1;exitDx=0;exitDy=0;entryX=1;entryY=0;entryDx=0;entryDy=0;strokeColor=default;align=center;verticalAlign=middle;fontFamily=Helvetica;fontSize=11;fontColor=default;labelBackgroundColor=default;startFill=0;endArrow=none;" edge="1" parent="S6ZuTX8GFXmOVU9LahuD-411" source="S6ZuTX8GFXmOVU9LahuD-419" target="S6ZuTX8GFXmOVU9LahuD-415">
          <mxGeometry relative="1" as="geometry" />
        </mxCell>
        <mxCell id="S6ZuTX8GFXmOVU9LahuD-419" value="" style="ellipse;whiteSpace=wrap;html=1;aspect=fixed;movable=1;resizable=1;rotatable=1;deletable=1;editable=1;locked=0;connectable=1;fillColor=#dae8fc;strokeColor=#6c8ebf;" vertex="1" parent="S6ZuTX8GFXmOVU9LahuD-411">
          <mxGeometry x="54.72" y="14.28" width="9.722222222222223" height="9.722222222222223" as="geometry" />
        </mxCell>
        <mxCell id="S6ZuTX8GFXmOVU9LahuD-420" style="edgeStyle=orthogonalEdgeStyle;rounded=0;orthogonalLoop=1;jettySize=auto;html=1;exitX=1;exitY=0.5;exitDx=0;exitDy=0;entryX=0;entryY=0.5;entryDx=0;entryDy=0;startArrow=none;startFill=0;jumpStyle=none;curved=1;endArrow=none;" edge="1" parent="S6ZuTX8GFXmOVU9LahuD-411" source="S6ZuTX8GFXmOVU9LahuD-421" target="S6ZuTX8GFXmOVU9LahuD-413">
          <mxGeometry relative="1" as="geometry" />
        </mxCell>
        <mxCell id="S6ZuTX8GFXmOVU9LahuD-421" value="" style="ellipse;whiteSpace=wrap;html=1;aspect=fixed;movable=1;resizable=1;rotatable=1;deletable=1;editable=1;locked=0;connectable=1;fillColor=#dae8fc;strokeColor=#6c8ebf;" vertex="1" parent="S6ZuTX8GFXmOVU9LahuD-411">
          <mxGeometry x="10" width="9.72" height="9.72" as="geometry" />
        </mxCell>
        <mxCell id="S6ZuTX8GFXmOVU9LahuD-422" value="" style="ellipse;whiteSpace=wrap;html=1;aspect=fixed;movable=1;resizable=1;rotatable=1;deletable=1;editable=1;locked=0;connectable=1;fillColor=#dae8fc;strokeColor=#6c8ebf;" vertex="1" parent="S6ZuTX8GFXmOVU9LahuD-411">
          <mxGeometry x="39.72" y="32.28" width="9.722222222222223" height="9.722222222222223" as="geometry" />
        </mxCell>
        <mxCell id="S6ZuTX8GFXmOVU9LahuD-423" style="edgeStyle=none;shape=connector;rounded=0;orthogonalLoop=1;jettySize=auto;html=1;exitX=1;exitY=0.5;exitDx=0;exitDy=0;entryX=0;entryY=1;entryDx=0;entryDy=0;strokeColor=default;align=center;verticalAlign=middle;fontFamily=Helvetica;fontSize=11;fontColor=default;labelBackgroundColor=default;startFill=0;endArrow=none;" edge="1" parent="S6ZuTX8GFXmOVU9LahuD-411" source="S6ZuTX8GFXmOVU9LahuD-424" target="S6ZuTX8GFXmOVU9LahuD-422">
          <mxGeometry relative="1" as="geometry" />
        </mxCell>
        <mxCell id="S6ZuTX8GFXmOVU9LahuD-424" value="" style="ellipse;whiteSpace=wrap;html=1;aspect=fixed;movable=1;resizable=1;rotatable=1;deletable=1;editable=1;locked=0;connectable=1;fillColor=#dae8fc;strokeColor=#6c8ebf;" vertex="1" parent="S6ZuTX8GFXmOVU9LahuD-411">
          <mxGeometry x="10.000000000000002" y="57.72" width="9.722222222222223" height="9.722222222222223" as="geometry" />
        </mxCell>
        <mxCell id="S6ZuTX8GFXmOVU9LahuD-425" style="rounded=0;orthogonalLoop=1;jettySize=auto;html=1;exitX=1;exitY=1;exitDx=0;exitDy=0;entryX=0;entryY=0.5;entryDx=0;entryDy=0;endArrow=none;startFill=0;" edge="1" parent="S6ZuTX8GFXmOVU9LahuD-411" source="S6ZuTX8GFXmOVU9LahuD-426" target="S6ZuTX8GFXmOVU9LahuD-424">
          <mxGeometry relative="1" as="geometry" />
        </mxCell>
        <mxCell id="S6ZuTX8GFXmOVU9LahuD-426" value="" style="ellipse;whiteSpace=wrap;html=1;aspect=fixed;movable=1;resizable=1;rotatable=1;deletable=1;editable=1;locked=0;connectable=1;fillColor=#dae8fc;strokeColor=#6c8ebf;" vertex="1" parent="S6ZuTX8GFXmOVU9LahuD-411">
          <mxGeometry x="-9.719999999999999" y="48" width="9.722222222222223" height="9.722222222222223" as="geometry" />
        </mxCell>
        <mxCell id="S6ZuTX8GFXmOVU9LahuD-427" style="rounded=0;orthogonalLoop=1;jettySize=auto;html=1;exitX=1;exitY=0;exitDx=0;exitDy=0;entryX=0;entryY=1;entryDx=0;entryDy=0;endArrow=none;startFill=0;" edge="1" parent="S6ZuTX8GFXmOVU9LahuD-409" source="S6ZuTX8GFXmOVU9LahuD-430" target="S6ZuTX8GFXmOVU9LahuD-421">
          <mxGeometry relative="1" as="geometry" />
        </mxCell>
        <mxCell id="S6ZuTX8GFXmOVU9LahuD-428" style="edgeStyle=orthogonalEdgeStyle;rounded=0;orthogonalLoop=1;jettySize=auto;html=1;exitX=0.5;exitY=1;exitDx=0;exitDy=0;entryX=0.5;entryY=0;entryDx=0;entryDy=0;endArrow=none;startFill=0;" edge="1" parent="S6ZuTX8GFXmOVU9LahuD-409" source="S6ZuTX8GFXmOVU9LahuD-430" target="S6ZuTX8GFXmOVU9LahuD-426">
          <mxGeometry relative="1" as="geometry" />
        </mxCell>
        <mxCell id="S6ZuTX8GFXmOVU9LahuD-429" style="edgeStyle=none;shape=connector;rounded=0;orthogonalLoop=1;jettySize=auto;html=1;exitX=1;exitY=0.5;exitDx=0;exitDy=0;entryX=0;entryY=0.5;entryDx=0;entryDy=0;strokeColor=default;align=center;verticalAlign=middle;fontFamily=Helvetica;fontSize=11;fontColor=default;labelBackgroundColor=default;startFill=0;endArrow=none;" edge="1" parent="S6ZuTX8GFXmOVU9LahuD-409" source="S6ZuTX8GFXmOVU9LahuD-430" target="S6ZuTX8GFXmOVU9LahuD-415">
          <mxGeometry relative="1" as="geometry" />
        </mxCell>
        <mxCell id="S6ZuTX8GFXmOVU9LahuD-430" value="" style="ellipse;whiteSpace=wrap;html=1;aspect=fixed;movable=1;resizable=1;rotatable=1;deletable=1;editable=1;locked=0;connectable=1;fillColor=#dae8fc;strokeColor=#6c8ebf;" vertex="1" parent="S6ZuTX8GFXmOVU9LahuD-409">
          <mxGeometry y="24.419999999999987" width="9.722222222222223" height="9.722222222222223" as="geometry" />
        </mxCell>
        <mxCell id="S6ZuTX8GFXmOVU9LahuD-431" style="edgeStyle=none;shape=connector;rounded=0;orthogonalLoop=1;jettySize=auto;html=1;exitX=0.5;exitY=0;exitDx=0;exitDy=0;entryX=0.5;entryY=1;entryDx=0;entryDy=0;strokeColor=default;align=center;verticalAlign=middle;fontFamily=Helvetica;fontSize=11;fontColor=default;labelBackgroundColor=default;startFill=0;endArrow=none;" edge="1" parent="S6ZuTX8GFXmOVU9LahuD-409" source="S6ZuTX8GFXmOVU9LahuD-432" target="S6ZuTX8GFXmOVU9LahuD-419">
          <mxGeometry relative="1" as="geometry" />
        </mxCell>
        <mxCell id="S6ZuTX8GFXmOVU9LahuD-432" value="" style="ellipse;whiteSpace=wrap;html=1;aspect=fixed;movable=1;resizable=1;rotatable=1;deletable=1;editable=1;locked=0;connectable=1;fillColor=#dae8fc;strokeColor=#6c8ebf;" vertex="1" parent="S6ZuTX8GFXmOVU9LahuD-409">
          <mxGeometry x="65" y="40.140000000000015" width="9.722222222222223" height="9.722222222222223" as="geometry" />
        </mxCell>
        <mxCell id="S6ZuTX8GFXmOVU9LahuD-433" style="edgeStyle=none;shape=connector;rounded=0;orthogonalLoop=1;jettySize=auto;html=1;exitX=1;exitY=0.5;exitDx=0;exitDy=0;entryX=0;entryY=1;entryDx=0;entryDy=0;strokeColor=default;align=center;verticalAlign=middle;fontFamily=Helvetica;fontSize=11;fontColor=default;labelBackgroundColor=default;startFill=0;endArrow=none;" edge="1" parent="S6ZuTX8GFXmOVU9LahuD-409" source="S6ZuTX8GFXmOVU9LahuD-417" target="S6ZuTX8GFXmOVU9LahuD-432">
          <mxGeometry relative="1" as="geometry" />
        </mxCell>
        <mxCell id="S6ZuTX8GFXmOVU9LahuD-434" style="edgeStyle=none;shape=connector;rounded=0;orthogonalLoop=1;jettySize=auto;html=1;exitX=1;exitY=0.5;exitDx=0;exitDy=0;entryX=0;entryY=0;entryDx=0;entryDy=0;strokeColor=default;align=center;verticalAlign=middle;fontFamily=Helvetica;fontSize=11;fontColor=default;labelBackgroundColor=default;startFill=0;endArrow=none;" edge="1" parent="S6ZuTX8GFXmOVU9LahuD-409" source="S6ZuTX8GFXmOVU9LahuD-422" target="S6ZuTX8GFXmOVU9LahuD-432">
          <mxGeometry relative="1" as="geometry" />
        </mxCell>
        <mxCell id="S6ZuTX8GFXmOVU9LahuD-732" value="$$\mathbf{A}$$" style="text;strokeColor=none;align=center;fillColor=none;html=1;verticalAlign=middle;whiteSpace=wrap;rounded=0;fontFamily=Helvetica;fontSize=12;fontColor=default;resizable=1;" vertex="1" parent="1">
          <mxGeometry x="193" y="37.66" width="60" height="30" as="geometry" />
        </mxCell>
        <mxCell id="S6ZuTX8GFXmOVU9LahuD-736" value="\(\boldsymbol{\eta}\)" style="text;whiteSpace=wrap;fontFamily=Helvetica;fontSize=13;fontColor=default;resizable=1;" vertex="1" parent="1">
          <mxGeometry x="735.5999999999999" y="36.5" width="31" height="31" as="geometry" />
        </mxCell>
        <mxCell id="S6ZuTX8GFXmOVU9LahuD-737" value="\(\text{Readout}\)" style="text;whiteSpace=wrap;fontFamily=Helvetica;fontSize=14;fontColor=default;resizable=1;rotation=-20;" vertex="1" parent="1">
          <mxGeometry x="729" y="274.96000000000004" width="69" height="35" as="geometry" />
        </mxCell>
        <mxCell id="S6ZuTX8GFXmOVU9LahuD-738" value="$$\mathbf{A}$$" style="text;whiteSpace=wrap;fontFamily=Helvetica;fontSize=12;fontColor=default;resizable=1;rotation=0;" vertex="1" parent="1">
          <mxGeometry x="730.95" y="-86.14" width="40.31" height="23" as="geometry" />
        </mxCell>
        <mxCell id="S6ZuTX8GFXmOVU9LahuD-739" value="\(\text{MLP}\)" style="text;whiteSpace=wrap;fontFamily=Helvetica;fontSize=12;fontColor=default;resizable=1;rotation=0;" vertex="1" parent="1">
          <mxGeometry x="726.61" y="11" width="49" height="30" as="geometry" />
        </mxCell>
        <mxCell id="S6ZuTX8GFXmOVU9LahuD-740" value="$$\mathbf{X}$$" style="text;whiteSpace=wrap;fontFamily=Helvetica;fontSize=12;fontColor=default;resizable=1;rotation=0;" vertex="1" parent="1">
          <mxGeometry x="730.95" y="-60.000000000000014" width="49" height="30" as="geometry" />
        </mxCell>
        <mxCell id="S6ZuTX8GFXmOVU9LahuD-741" value="\(\text{Gconv}\)" style="text;whiteSpace=wrap;fontFamily=Helvetica;fontSize=12;fontColor=default;resizable=1;rotation=0;" vertex="1" parent="1">
          <mxGeometry x="722.26" y="-19" width="49" height="30" as="geometry" />
        </mxCell>
        <mxCell id="S6ZuTX8GFXmOVU9LahuD-742" value="邻接矩阵" style="text;whiteSpace=wrap;fontFamily=黑体;fontSize=12;fontColor=default;resizable=1;rotation=0;fontStyle=1" vertex="1" parent="1">
          <mxGeometry x="842.26" y="-77.00000000000001" width="83" height="28" as="geometry" />
        </mxCell>
        <mxCell id="S6ZuTX8GFXmOVU9LahuD-743" value="输入节点特征矩阵" style="text;whiteSpace=wrap;fontFamily=黑体;fontSize=12;fontColor=default;resizable=1;rotation=0;fontStyle=1" vertex="1" parent="1">
          <mxGeometry x="825.26" y="-51" width="103" height="27" as="geometry" />
        </mxCell>
        <mxCell id="S6ZuTX8GFXmOVU9LahuD-744" value="图卷积层" style="text;whiteSpace=wrap;fontFamily=黑体;fontSize=12;fontColor=default;resizable=1;rotation=0;fontStyle=1" vertex="1" parent="1">
          <mxGeometry x="842.26" y="-23" width="103" height="27" as="geometry" />
        </mxCell>
        <mxCell id="S6ZuTX8GFXmOVU9LahuD-745" value="多层感知机" style="text;whiteSpace=wrap;fontFamily=黑体;fontSize=12;fontColor=default;resizable=1;rotation=0;fontStyle=1" vertex="1" parent="1">
          <mxGeometry x="840.26" y="9.5" width="103" height="27" as="geometry" />
        </mxCell>
        <mxCell id="S6ZuTX8GFXmOVU9LahuD-746" value="功率控制系数" style="text;whiteSpace=wrap;fontFamily=黑体;fontSize=12;fontColor=default;resizable=1;rotation=0;fontStyle=1" vertex="1" parent="1">
          <mxGeometry x="837.26" y="40" width="103" height="27" as="geometry" />
        </mxCell>
        <mxCell id="S6ZuTX8GFXmOVU9LahuD-757" value="" style="endArrow=classic;html=1;rounded=0;strokeColor=default;align=center;verticalAlign=middle;fontFamily=Helvetica;fontSize=11;fontColor=default;labelBackgroundColor=default;strokeWidth=1;endFill=1;startFill=1;startArrow=classic;" edge="1" parent="1">
          <mxGeometry width="50" height="50" relative="1" as="geometry">
            <mxPoint x="169" y="158" as="sourcePoint" />
            <mxPoint x="647" y="339" as="targetPoint" />
          </mxGeometry>
        </mxCell>
        <mxCell id="S6ZuTX8GFXmOVU9LahuD-758" value="" style="endArrow=classic;html=1;rounded=0;strokeColor=default;align=center;verticalAlign=middle;fontFamily=Helvetica;fontSize=11;fontColor=default;labelBackgroundColor=default;strokeWidth=1;endFill=1;startFill=1;startArrow=classic;" edge="1" parent="1">
          <mxGeometry width="50" height="50" relative="1" as="geometry">
            <mxPoint x="757" y="386" as="sourcePoint" />
            <mxPoint x="833.6" y="413" as="targetPoint" />
          </mxGeometry>
        </mxCell>
        <mxCell id="S6ZuTX8GFXmOVU9LahuD-759" value="" style="endArrow=none;html=1;rounded=0;strokeColor=default;align=center;verticalAlign=middle;fontFamily=Helvetica;fontSize=12;fontColor=default;labelBackgroundColor=default;resizable=1;startFill=0;dashed=1;" edge="1" parent="1">
          <mxGeometry width="50" height="50" relative="1" as="geometry">
            <mxPoint x="162" y="167" as="sourcePoint" />
            <mxPoint x="232.00000000000003" y="90" as="targetPoint" />
          </mxGeometry>
        </mxCell>
        <mxCell id="S6ZuTX8GFXmOVU9LahuD-760" value="" style="endArrow=none;html=1;rounded=0;strokeColor=default;align=center;verticalAlign=middle;fontFamily=Helvetica;fontSize=12;fontColor=default;labelBackgroundColor=default;resizable=1;startFill=0;dashed=1;" edge="1" parent="1">
          <mxGeometry width="50" height="50" relative="1" as="geometry">
            <mxPoint x="640" y="351" as="sourcePoint" />
            <mxPoint x="715" y="271" as="targetPoint" />
          </mxGeometry>
        </mxCell>
        <mxCell id="S6ZuTX8GFXmOVU9LahuD-762" value="&lt;b style=&quot;forced-color-adjust: none; font-style: normal; font-variant-ligatures: normal; font-variant-caps: normal; letter-spacing: normal; orphans: 2; text-align: center; text-indent: 0px; text-transform: none; widows: 2; word-spacing: 0px; -webkit-text-stroke-width: 0px; white-space: nowrap; background-color: rgb(255, 255, 255); text-decoration-thickness: initial; text-decoration-style: initial; text-decoration-color: initial;&quot;&gt;&lt;font style=&quot;font-size: 12px; color: rgb(0, 0, 0);&quot; face=&quot;黑体&quot;&gt;编码器&lt;/font&gt;&lt;/b&gt;" style="text;whiteSpace=wrap;html=1;fontFamily=Helvetica;fontSize=11;fontColor=default;labelBackgroundColor=default;rotation=20;" vertex="1" parent="1">
          <mxGeometry x="354.6944444444443" y="250.00333333333327" width="64" height="35" as="geometry" />
        </mxCell>
        <mxCell id="S6ZuTX8GFXmOVU9LahuD-764" value="" style="endArrow=none;html=1;rounded=0;strokeColor=default;align=center;verticalAlign=middle;fontFamily=Helvetica;fontSize=12;fontColor=default;labelBackgroundColor=default;resizable=1;startFill=0;dashed=1;" edge="1" parent="1">
          <mxGeometry width="50" height="50" relative="1" as="geometry">
            <mxPoint x="746" y="391" as="sourcePoint" />
            <mxPoint x="820" y="312" as="targetPoint" />
          </mxGeometry>
        </mxCell>
        <mxCell id="S6ZuTX8GFXmOVU9LahuD-765" value="" style="endArrow=none;html=1;rounded=0;strokeColor=default;align=center;verticalAlign=middle;fontFamily=Helvetica;fontSize=12;fontColor=default;labelBackgroundColor=default;resizable=1;startFill=0;dashed=1;" edge="1" parent="1">
          <mxGeometry width="50" height="50" relative="1" as="geometry">
            <mxPoint x="821" y="425" as="sourcePoint" />
            <mxPoint x="898" y="342" as="targetPoint" />
          </mxGeometry>
        </mxCell>
        <mxCell id="S6ZuTX8GFXmOVU9LahuD-766" value="&lt;b style=&quot;forced-color-adjust: none; color: rgb(0, 0, 0); font-style: normal; font-variant-ligatures: normal; font-variant-caps: normal; letter-spacing: normal; orphans: 2; text-align: center; text-indent: 0px; text-transform: none; widows: 2; word-spacing: 0px; -webkit-text-stroke-width: 0px; white-space: nowrap; background-color: rgb(255, 255, 255); text-decoration-thickness: initial; text-decoration-style: initial; text-decoration-color: initial;&quot;&gt;&lt;font style=&quot;font-size: 12px;&quot; face=&quot;黑体&quot;&gt;解码器&lt;/font&gt;&lt;/b&gt;" style="text;whiteSpace=wrap;html=1;fontFamily=Helvetica;fontSize=11;fontColor=default;labelBackgroundColor=default;rotation=20;" vertex="1" parent="1">
          <mxGeometry x="761.2644444444443" y="407.0033333333333" width="64" height="35" as="geometry" />
        </mxCell>
      </root>
    </mxGraphModel>
  </diagram>
</mxfile>
